%TF.GenerationSoftware,KiCad,Pcbnew,9.0.6*%
%TF.CreationDate,2026-04-07T09:51:01+02:00*%
%TF.ProjectId,Redboard,52656462-6f61-4726-942e-6b696361645f,rev?*%
%TF.SameCoordinates,Original*%
%TF.FileFunction,Soldermask,Top*%
%TF.FilePolarity,Negative*%
%FSLAX46Y46*%
G04 Gerber Fmt 4.6, Leading zero omitted, Abs format (unit mm)*
G04 Created by KiCad (PCBNEW 9.0.6) date 2026-04-07 09:51:01*
%MOMM*%
%LPD*%
G01*
G04 APERTURE LIST*
G04 Aperture macros list*
%AMRoundRect*
0 Rectangle with rounded corners*
0 $1 Rounding radius*
0 $2 $3 $4 $5 $6 $7 $8 $9 X,Y pos of 4 corners*
0 Add a 4 corners polygon primitive as box body*
4,1,4,$2,$3,$4,$5,$6,$7,$8,$9,$2,$3,0*
0 Add four circle primitives for the rounded corners*
1,1,$1+$1,$2,$3*
1,1,$1+$1,$4,$5*
1,1,$1+$1,$6,$7*
1,1,$1+$1,$8,$9*
0 Add four rect primitives between the rounded corners*
20,1,$1+$1,$2,$3,$4,$5,0*
20,1,$1+$1,$4,$5,$6,$7,0*
20,1,$1+$1,$6,$7,$8,$9,0*
20,1,$1+$1,$8,$9,$2,$3,0*%
G04 Aperture macros list end*
%ADD10RoundRect,0.050000X-0.387500X-0.050000X0.387500X-0.050000X0.387500X0.050000X-0.387500X0.050000X0*%
%ADD11RoundRect,0.050000X-0.050000X-0.387500X0.050000X-0.387500X0.050000X0.387500X-0.050000X0.387500X0*%
%ADD12R,3.200000X3.200000*%
G04 APERTURE END LIST*
D10*
%TO.C,RP2040*%
X113125000Y-71200000D03*
X113125000Y-71600000D03*
X113125000Y-72000000D03*
X113125000Y-72400000D03*
X113125000Y-72800000D03*
X113125000Y-73200000D03*
X113125000Y-73600000D03*
X113125000Y-74000000D03*
X113125000Y-74400000D03*
X113125000Y-74800000D03*
X113125000Y-75200000D03*
X113125000Y-75600000D03*
X113125000Y-76000000D03*
X113125000Y-76400000D03*
D11*
X113962500Y-77237500D03*
X114362500Y-77237500D03*
X114762500Y-77237500D03*
X115162500Y-77237500D03*
X115562500Y-77237500D03*
X115962500Y-77237500D03*
X116362500Y-77237500D03*
X116762500Y-77237500D03*
X117162500Y-77237500D03*
X117562500Y-77237500D03*
X117962500Y-77237500D03*
X118362500Y-77237500D03*
X118762500Y-77237500D03*
X119162500Y-77237500D03*
D10*
X120000000Y-76400000D03*
X120000000Y-76000000D03*
X120000000Y-75600000D03*
X120000000Y-75200000D03*
X120000000Y-74800000D03*
X120000000Y-74400000D03*
X120000000Y-74000000D03*
X120000000Y-73600000D03*
X120000000Y-73200000D03*
X120000000Y-72800000D03*
X120000000Y-72400000D03*
X120000000Y-72000000D03*
X120000000Y-71600000D03*
X120000000Y-71200000D03*
D11*
X119162500Y-70362500D03*
X118762500Y-70362500D03*
X118362500Y-70362500D03*
X117962500Y-70362500D03*
X117562500Y-70362500D03*
X117162500Y-70362500D03*
X116762500Y-70362500D03*
X116362500Y-70362500D03*
X115962500Y-70362500D03*
X115562500Y-70362500D03*
X115162500Y-70362500D03*
X114762500Y-70362500D03*
X114362500Y-70362500D03*
X113962500Y-70362500D03*
D12*
X116562500Y-73800000D03*
%TD*%
M02*
