%TF.GenerationSoftware,KiCad,Pcbnew,9.0.6*%
%TF.CreationDate,2026-04-09T19:16:37+02:00*%
%TF.ProjectId,HackClubNano,4861636b-436c-4756-924e-616e6f2e6b69,rev?*%
%TF.SameCoordinates,Original*%
%TF.FileFunction,Legend,Top*%
%TF.FilePolarity,Positive*%
%FSLAX46Y46*%
G04 Gerber Fmt 4.6, Leading zero omitted, Abs format (unit mm)*
G04 Created by KiCad (PCBNEW 9.0.6) date 2026-04-09 19:16:37*
%MOMM*%
%LPD*%
G01*
G04 APERTURE LIST*
%ADD10C,0.150000*%
%ADD11C,0.120000*%
G04 APERTURE END LIST*
D10*
X147609580Y-79116666D02*
X147657200Y-79164285D01*
X147657200Y-79164285D02*
X147704819Y-79307142D01*
X147704819Y-79307142D02*
X147704819Y-79402380D01*
X147704819Y-79402380D02*
X147657200Y-79545237D01*
X147657200Y-79545237D02*
X147561961Y-79640475D01*
X147561961Y-79640475D02*
X147466723Y-79688094D01*
X147466723Y-79688094D02*
X147276247Y-79735713D01*
X147276247Y-79735713D02*
X147133390Y-79735713D01*
X147133390Y-79735713D02*
X146942914Y-79688094D01*
X146942914Y-79688094D02*
X146847676Y-79640475D01*
X146847676Y-79640475D02*
X146752438Y-79545237D01*
X146752438Y-79545237D02*
X146704819Y-79402380D01*
X146704819Y-79402380D02*
X146704819Y-79307142D01*
X146704819Y-79307142D02*
X146752438Y-79164285D01*
X146752438Y-79164285D02*
X146800057Y-79116666D01*
X146800057Y-78735713D02*
X146752438Y-78688094D01*
X146752438Y-78688094D02*
X146704819Y-78592856D01*
X146704819Y-78592856D02*
X146704819Y-78354761D01*
X146704819Y-78354761D02*
X146752438Y-78259523D01*
X146752438Y-78259523D02*
X146800057Y-78211904D01*
X146800057Y-78211904D02*
X146895295Y-78164285D01*
X146895295Y-78164285D02*
X146990533Y-78164285D01*
X146990533Y-78164285D02*
X147133390Y-78211904D01*
X147133390Y-78211904D02*
X147704819Y-78783332D01*
X147704819Y-78783332D02*
X147704819Y-78164285D01*
X147578628Y-95776190D02*
X148054819Y-95776190D01*
X147054819Y-96109523D02*
X147578628Y-95776190D01*
X147578628Y-95776190D02*
X147054819Y-95442857D01*
X148054819Y-94585714D02*
X148054819Y-95157142D01*
X148054819Y-94871428D02*
X147054819Y-94871428D01*
X147054819Y-94871428D02*
X147197676Y-94966666D01*
X147197676Y-94966666D02*
X147292914Y-95061904D01*
X147292914Y-95061904D02*
X147340533Y-95157142D01*
X145859580Y-79116666D02*
X145907200Y-79164285D01*
X145907200Y-79164285D02*
X145954819Y-79307142D01*
X145954819Y-79307142D02*
X145954819Y-79402380D01*
X145954819Y-79402380D02*
X145907200Y-79545237D01*
X145907200Y-79545237D02*
X145811961Y-79640475D01*
X145811961Y-79640475D02*
X145716723Y-79688094D01*
X145716723Y-79688094D02*
X145526247Y-79735713D01*
X145526247Y-79735713D02*
X145383390Y-79735713D01*
X145383390Y-79735713D02*
X145192914Y-79688094D01*
X145192914Y-79688094D02*
X145097676Y-79640475D01*
X145097676Y-79640475D02*
X145002438Y-79545237D01*
X145002438Y-79545237D02*
X144954819Y-79402380D01*
X144954819Y-79402380D02*
X144954819Y-79307142D01*
X144954819Y-79307142D02*
X145002438Y-79164285D01*
X145002438Y-79164285D02*
X145050057Y-79116666D01*
X145954819Y-78164285D02*
X145954819Y-78735713D01*
X145954819Y-78449999D02*
X144954819Y-78449999D01*
X144954819Y-78449999D02*
X145097676Y-78545237D01*
X145097676Y-78545237D02*
X145192914Y-78640475D01*
X145192914Y-78640475D02*
X145240533Y-78735713D01*
X155109580Y-93266666D02*
X155157200Y-93314285D01*
X155157200Y-93314285D02*
X155204819Y-93457142D01*
X155204819Y-93457142D02*
X155204819Y-93552380D01*
X155204819Y-93552380D02*
X155157200Y-93695237D01*
X155157200Y-93695237D02*
X155061961Y-93790475D01*
X155061961Y-93790475D02*
X154966723Y-93838094D01*
X154966723Y-93838094D02*
X154776247Y-93885713D01*
X154776247Y-93885713D02*
X154633390Y-93885713D01*
X154633390Y-93885713D02*
X154442914Y-93838094D01*
X154442914Y-93838094D02*
X154347676Y-93790475D01*
X154347676Y-93790475D02*
X154252438Y-93695237D01*
X154252438Y-93695237D02*
X154204819Y-93552380D01*
X154204819Y-93552380D02*
X154204819Y-93457142D01*
X154204819Y-93457142D02*
X154252438Y-93314285D01*
X154252438Y-93314285D02*
X154300057Y-93266666D01*
X154204819Y-92933332D02*
X154204819Y-92314285D01*
X154204819Y-92314285D02*
X154585771Y-92647618D01*
X154585771Y-92647618D02*
X154585771Y-92504761D01*
X154585771Y-92504761D02*
X154633390Y-92409523D01*
X154633390Y-92409523D02*
X154681009Y-92361904D01*
X154681009Y-92361904D02*
X154776247Y-92314285D01*
X154776247Y-92314285D02*
X155014342Y-92314285D01*
X155014342Y-92314285D02*
X155109580Y-92361904D01*
X155109580Y-92361904D02*
X155157200Y-92409523D01*
X155157200Y-92409523D02*
X155204819Y-92504761D01*
X155204819Y-92504761D02*
X155204819Y-92790475D01*
X155204819Y-92790475D02*
X155157200Y-92885713D01*
X155157200Y-92885713D02*
X155109580Y-92933332D01*
X158082142Y-106809580D02*
X158034523Y-106857200D01*
X158034523Y-106857200D02*
X157891666Y-106904819D01*
X157891666Y-106904819D02*
X157796428Y-106904819D01*
X157796428Y-106904819D02*
X157653571Y-106857200D01*
X157653571Y-106857200D02*
X157558333Y-106761961D01*
X157558333Y-106761961D02*
X157510714Y-106666723D01*
X157510714Y-106666723D02*
X157463095Y-106476247D01*
X157463095Y-106476247D02*
X157463095Y-106333390D01*
X157463095Y-106333390D02*
X157510714Y-106142914D01*
X157510714Y-106142914D02*
X157558333Y-106047676D01*
X157558333Y-106047676D02*
X157653571Y-105952438D01*
X157653571Y-105952438D02*
X157796428Y-105904819D01*
X157796428Y-105904819D02*
X157891666Y-105904819D01*
X157891666Y-105904819D02*
X158034523Y-105952438D01*
X158034523Y-105952438D02*
X158082142Y-106000057D01*
X159034523Y-106904819D02*
X158463095Y-106904819D01*
X158748809Y-106904819D02*
X158748809Y-105904819D01*
X158748809Y-105904819D02*
X158653571Y-106047676D01*
X158653571Y-106047676D02*
X158558333Y-106142914D01*
X158558333Y-106142914D02*
X158463095Y-106190533D01*
X159653571Y-105904819D02*
X159748809Y-105904819D01*
X159748809Y-105904819D02*
X159844047Y-105952438D01*
X159844047Y-105952438D02*
X159891666Y-106000057D01*
X159891666Y-106000057D02*
X159939285Y-106095295D01*
X159939285Y-106095295D02*
X159986904Y-106285771D01*
X159986904Y-106285771D02*
X159986904Y-106523866D01*
X159986904Y-106523866D02*
X159939285Y-106714342D01*
X159939285Y-106714342D02*
X159891666Y-106809580D01*
X159891666Y-106809580D02*
X159844047Y-106857200D01*
X159844047Y-106857200D02*
X159748809Y-106904819D01*
X159748809Y-106904819D02*
X159653571Y-106904819D01*
X159653571Y-106904819D02*
X159558333Y-106857200D01*
X159558333Y-106857200D02*
X159510714Y-106809580D01*
X159510714Y-106809580D02*
X159463095Y-106714342D01*
X159463095Y-106714342D02*
X159415476Y-106523866D01*
X159415476Y-106523866D02*
X159415476Y-106285771D01*
X159415476Y-106285771D02*
X159463095Y-106095295D01*
X159463095Y-106095295D02*
X159510714Y-106000057D01*
X159510714Y-106000057D02*
X159558333Y-105952438D01*
X159558333Y-105952438D02*
X159653571Y-105904819D01*
X156225595Y-114849819D02*
X156225595Y-115659342D01*
X156225595Y-115659342D02*
X156273214Y-115754580D01*
X156273214Y-115754580D02*
X156320833Y-115802200D01*
X156320833Y-115802200D02*
X156416071Y-115849819D01*
X156416071Y-115849819D02*
X156606547Y-115849819D01*
X156606547Y-115849819D02*
X156701785Y-115802200D01*
X156701785Y-115802200D02*
X156749404Y-115754580D01*
X156749404Y-115754580D02*
X156797023Y-115659342D01*
X156797023Y-115659342D02*
X156797023Y-114849819D01*
X157177976Y-114849819D02*
X157797023Y-114849819D01*
X157797023Y-114849819D02*
X157463690Y-115230771D01*
X157463690Y-115230771D02*
X157606547Y-115230771D01*
X157606547Y-115230771D02*
X157701785Y-115278390D01*
X157701785Y-115278390D02*
X157749404Y-115326009D01*
X157749404Y-115326009D02*
X157797023Y-115421247D01*
X157797023Y-115421247D02*
X157797023Y-115659342D01*
X157797023Y-115659342D02*
X157749404Y-115754580D01*
X157749404Y-115754580D02*
X157701785Y-115802200D01*
X157701785Y-115802200D02*
X157606547Y-115849819D01*
X157606547Y-115849819D02*
X157320833Y-115849819D01*
X157320833Y-115849819D02*
X157225595Y-115802200D01*
X157225595Y-115802200D02*
X157177976Y-115754580D01*
X157982142Y-112059580D02*
X157934523Y-112107200D01*
X157934523Y-112107200D02*
X157791666Y-112154819D01*
X157791666Y-112154819D02*
X157696428Y-112154819D01*
X157696428Y-112154819D02*
X157553571Y-112107200D01*
X157553571Y-112107200D02*
X157458333Y-112011961D01*
X157458333Y-112011961D02*
X157410714Y-111916723D01*
X157410714Y-111916723D02*
X157363095Y-111726247D01*
X157363095Y-111726247D02*
X157363095Y-111583390D01*
X157363095Y-111583390D02*
X157410714Y-111392914D01*
X157410714Y-111392914D02*
X157458333Y-111297676D01*
X157458333Y-111297676D02*
X157553571Y-111202438D01*
X157553571Y-111202438D02*
X157696428Y-111154819D01*
X157696428Y-111154819D02*
X157791666Y-111154819D01*
X157791666Y-111154819D02*
X157934523Y-111202438D01*
X157934523Y-111202438D02*
X157982142Y-111250057D01*
X158934523Y-112154819D02*
X158363095Y-112154819D01*
X158648809Y-112154819D02*
X158648809Y-111154819D01*
X158648809Y-111154819D02*
X158553571Y-111297676D01*
X158553571Y-111297676D02*
X158458333Y-111392914D01*
X158458333Y-111392914D02*
X158363095Y-111440533D01*
X159267857Y-111154819D02*
X159886904Y-111154819D01*
X159886904Y-111154819D02*
X159553571Y-111535771D01*
X159553571Y-111535771D02*
X159696428Y-111535771D01*
X159696428Y-111535771D02*
X159791666Y-111583390D01*
X159791666Y-111583390D02*
X159839285Y-111631009D01*
X159839285Y-111631009D02*
X159886904Y-111726247D01*
X159886904Y-111726247D02*
X159886904Y-111964342D01*
X159886904Y-111964342D02*
X159839285Y-112059580D01*
X159839285Y-112059580D02*
X159791666Y-112107200D01*
X159791666Y-112107200D02*
X159696428Y-112154819D01*
X159696428Y-112154819D02*
X159410714Y-112154819D01*
X159410714Y-112154819D02*
X159315476Y-112107200D01*
X159315476Y-112107200D02*
X159267857Y-112059580D01*
X158983333Y-101559580D02*
X158935714Y-101607200D01*
X158935714Y-101607200D02*
X158792857Y-101654819D01*
X158792857Y-101654819D02*
X158697619Y-101654819D01*
X158697619Y-101654819D02*
X158554762Y-101607200D01*
X158554762Y-101607200D02*
X158459524Y-101511961D01*
X158459524Y-101511961D02*
X158411905Y-101416723D01*
X158411905Y-101416723D02*
X158364286Y-101226247D01*
X158364286Y-101226247D02*
X158364286Y-101083390D01*
X158364286Y-101083390D02*
X158411905Y-100892914D01*
X158411905Y-100892914D02*
X158459524Y-100797676D01*
X158459524Y-100797676D02*
X158554762Y-100702438D01*
X158554762Y-100702438D02*
X158697619Y-100654819D01*
X158697619Y-100654819D02*
X158792857Y-100654819D01*
X158792857Y-100654819D02*
X158935714Y-100702438D01*
X158935714Y-100702438D02*
X158983333Y-100750057D01*
X159316667Y-100654819D02*
X159983333Y-100654819D01*
X159983333Y-100654819D02*
X159554762Y-101654819D01*
X158983333Y-103309580D02*
X158935714Y-103357200D01*
X158935714Y-103357200D02*
X158792857Y-103404819D01*
X158792857Y-103404819D02*
X158697619Y-103404819D01*
X158697619Y-103404819D02*
X158554762Y-103357200D01*
X158554762Y-103357200D02*
X158459524Y-103261961D01*
X158459524Y-103261961D02*
X158411905Y-103166723D01*
X158411905Y-103166723D02*
X158364286Y-102976247D01*
X158364286Y-102976247D02*
X158364286Y-102833390D01*
X158364286Y-102833390D02*
X158411905Y-102642914D01*
X158411905Y-102642914D02*
X158459524Y-102547676D01*
X158459524Y-102547676D02*
X158554762Y-102452438D01*
X158554762Y-102452438D02*
X158697619Y-102404819D01*
X158697619Y-102404819D02*
X158792857Y-102404819D01*
X158792857Y-102404819D02*
X158935714Y-102452438D01*
X158935714Y-102452438D02*
X158983333Y-102500057D01*
X159554762Y-102833390D02*
X159459524Y-102785771D01*
X159459524Y-102785771D02*
X159411905Y-102738152D01*
X159411905Y-102738152D02*
X159364286Y-102642914D01*
X159364286Y-102642914D02*
X159364286Y-102595295D01*
X159364286Y-102595295D02*
X159411905Y-102500057D01*
X159411905Y-102500057D02*
X159459524Y-102452438D01*
X159459524Y-102452438D02*
X159554762Y-102404819D01*
X159554762Y-102404819D02*
X159745238Y-102404819D01*
X159745238Y-102404819D02*
X159840476Y-102452438D01*
X159840476Y-102452438D02*
X159888095Y-102500057D01*
X159888095Y-102500057D02*
X159935714Y-102595295D01*
X159935714Y-102595295D02*
X159935714Y-102642914D01*
X159935714Y-102642914D02*
X159888095Y-102738152D01*
X159888095Y-102738152D02*
X159840476Y-102785771D01*
X159840476Y-102785771D02*
X159745238Y-102833390D01*
X159745238Y-102833390D02*
X159554762Y-102833390D01*
X159554762Y-102833390D02*
X159459524Y-102881009D01*
X159459524Y-102881009D02*
X159411905Y-102928628D01*
X159411905Y-102928628D02*
X159364286Y-103023866D01*
X159364286Y-103023866D02*
X159364286Y-103214342D01*
X159364286Y-103214342D02*
X159411905Y-103309580D01*
X159411905Y-103309580D02*
X159459524Y-103357200D01*
X159459524Y-103357200D02*
X159554762Y-103404819D01*
X159554762Y-103404819D02*
X159745238Y-103404819D01*
X159745238Y-103404819D02*
X159840476Y-103357200D01*
X159840476Y-103357200D02*
X159888095Y-103309580D01*
X159888095Y-103309580D02*
X159935714Y-103214342D01*
X159935714Y-103214342D02*
X159935714Y-103023866D01*
X159935714Y-103023866D02*
X159888095Y-102928628D01*
X159888095Y-102928628D02*
X159840476Y-102881009D01*
X159840476Y-102881009D02*
X159745238Y-102833390D01*
X147454819Y-113566666D02*
X146978628Y-113899999D01*
X147454819Y-114138094D02*
X146454819Y-114138094D01*
X146454819Y-114138094D02*
X146454819Y-113757142D01*
X146454819Y-113757142D02*
X146502438Y-113661904D01*
X146502438Y-113661904D02*
X146550057Y-113614285D01*
X146550057Y-113614285D02*
X146645295Y-113566666D01*
X146645295Y-113566666D02*
X146788152Y-113566666D01*
X146788152Y-113566666D02*
X146883390Y-113614285D01*
X146883390Y-113614285D02*
X146931009Y-113661904D01*
X146931009Y-113661904D02*
X146978628Y-113757142D01*
X146978628Y-113757142D02*
X146978628Y-114138094D01*
X146454819Y-113233332D02*
X146454819Y-112614285D01*
X146454819Y-112614285D02*
X146835771Y-112947618D01*
X146835771Y-112947618D02*
X146835771Y-112804761D01*
X146835771Y-112804761D02*
X146883390Y-112709523D01*
X146883390Y-112709523D02*
X146931009Y-112661904D01*
X146931009Y-112661904D02*
X147026247Y-112614285D01*
X147026247Y-112614285D02*
X147264342Y-112614285D01*
X147264342Y-112614285D02*
X147359580Y-112661904D01*
X147359580Y-112661904D02*
X147407200Y-112709523D01*
X147407200Y-112709523D02*
X147454819Y-112804761D01*
X147454819Y-112804761D02*
X147454819Y-113090475D01*
X147454819Y-113090475D02*
X147407200Y-113185713D01*
X147407200Y-113185713D02*
X147359580Y-113233332D01*
X154757142Y-110659580D02*
X154709523Y-110707200D01*
X154709523Y-110707200D02*
X154566666Y-110754819D01*
X154566666Y-110754819D02*
X154471428Y-110754819D01*
X154471428Y-110754819D02*
X154328571Y-110707200D01*
X154328571Y-110707200D02*
X154233333Y-110611961D01*
X154233333Y-110611961D02*
X154185714Y-110516723D01*
X154185714Y-110516723D02*
X154138095Y-110326247D01*
X154138095Y-110326247D02*
X154138095Y-110183390D01*
X154138095Y-110183390D02*
X154185714Y-109992914D01*
X154185714Y-109992914D02*
X154233333Y-109897676D01*
X154233333Y-109897676D02*
X154328571Y-109802438D01*
X154328571Y-109802438D02*
X154471428Y-109754819D01*
X154471428Y-109754819D02*
X154566666Y-109754819D01*
X154566666Y-109754819D02*
X154709523Y-109802438D01*
X154709523Y-109802438D02*
X154757142Y-109850057D01*
X155709523Y-110754819D02*
X155138095Y-110754819D01*
X155423809Y-110754819D02*
X155423809Y-109754819D01*
X155423809Y-109754819D02*
X155328571Y-109897676D01*
X155328571Y-109897676D02*
X155233333Y-109992914D01*
X155233333Y-109992914D02*
X155138095Y-110040533D01*
X156566666Y-110088152D02*
X156566666Y-110754819D01*
X156328571Y-109707200D02*
X156090476Y-110421485D01*
X156090476Y-110421485D02*
X156709523Y-110421485D01*
X157704819Y-92356666D02*
X157228628Y-92689999D01*
X157704819Y-92928094D02*
X156704819Y-92928094D01*
X156704819Y-92928094D02*
X156704819Y-92547142D01*
X156704819Y-92547142D02*
X156752438Y-92451904D01*
X156752438Y-92451904D02*
X156800057Y-92404285D01*
X156800057Y-92404285D02*
X156895295Y-92356666D01*
X156895295Y-92356666D02*
X157038152Y-92356666D01*
X157038152Y-92356666D02*
X157133390Y-92404285D01*
X157133390Y-92404285D02*
X157181009Y-92451904D01*
X157181009Y-92451904D02*
X157228628Y-92547142D01*
X157228628Y-92547142D02*
X157228628Y-92928094D01*
X157704819Y-91404285D02*
X157704819Y-91975713D01*
X157704819Y-91689999D02*
X156704819Y-91689999D01*
X156704819Y-91689999D02*
X156847676Y-91785237D01*
X156847676Y-91785237D02*
X156942914Y-91880475D01*
X156942914Y-91880475D02*
X156990533Y-91975713D01*
X161883333Y-98359580D02*
X161835714Y-98407200D01*
X161835714Y-98407200D02*
X161692857Y-98454819D01*
X161692857Y-98454819D02*
X161597619Y-98454819D01*
X161597619Y-98454819D02*
X161454762Y-98407200D01*
X161454762Y-98407200D02*
X161359524Y-98311961D01*
X161359524Y-98311961D02*
X161311905Y-98216723D01*
X161311905Y-98216723D02*
X161264286Y-98026247D01*
X161264286Y-98026247D02*
X161264286Y-97883390D01*
X161264286Y-97883390D02*
X161311905Y-97692914D01*
X161311905Y-97692914D02*
X161359524Y-97597676D01*
X161359524Y-97597676D02*
X161454762Y-97502438D01*
X161454762Y-97502438D02*
X161597619Y-97454819D01*
X161597619Y-97454819D02*
X161692857Y-97454819D01*
X161692857Y-97454819D02*
X161835714Y-97502438D01*
X161835714Y-97502438D02*
X161883333Y-97550057D01*
X162740476Y-97788152D02*
X162740476Y-98454819D01*
X162502381Y-97407200D02*
X162264286Y-98121485D01*
X162264286Y-98121485D02*
X162883333Y-98121485D01*
X147488095Y-87204819D02*
X147488095Y-88014342D01*
X147488095Y-88014342D02*
X147535714Y-88109580D01*
X147535714Y-88109580D02*
X147583333Y-88157200D01*
X147583333Y-88157200D02*
X147678571Y-88204819D01*
X147678571Y-88204819D02*
X147869047Y-88204819D01*
X147869047Y-88204819D02*
X147964285Y-88157200D01*
X147964285Y-88157200D02*
X148011904Y-88109580D01*
X148011904Y-88109580D02*
X148059523Y-88014342D01*
X148059523Y-88014342D02*
X148059523Y-87204819D01*
X148488095Y-87300057D02*
X148535714Y-87252438D01*
X148535714Y-87252438D02*
X148630952Y-87204819D01*
X148630952Y-87204819D02*
X148869047Y-87204819D01*
X148869047Y-87204819D02*
X148964285Y-87252438D01*
X148964285Y-87252438D02*
X149011904Y-87300057D01*
X149011904Y-87300057D02*
X149059523Y-87395295D01*
X149059523Y-87395295D02*
X149059523Y-87490533D01*
X149059523Y-87490533D02*
X149011904Y-87633390D01*
X149011904Y-87633390D02*
X148440476Y-88204819D01*
X148440476Y-88204819D02*
X149059523Y-88204819D01*
X158933333Y-105159580D02*
X158885714Y-105207200D01*
X158885714Y-105207200D02*
X158742857Y-105254819D01*
X158742857Y-105254819D02*
X158647619Y-105254819D01*
X158647619Y-105254819D02*
X158504762Y-105207200D01*
X158504762Y-105207200D02*
X158409524Y-105111961D01*
X158409524Y-105111961D02*
X158361905Y-105016723D01*
X158361905Y-105016723D02*
X158314286Y-104826247D01*
X158314286Y-104826247D02*
X158314286Y-104683390D01*
X158314286Y-104683390D02*
X158361905Y-104492914D01*
X158361905Y-104492914D02*
X158409524Y-104397676D01*
X158409524Y-104397676D02*
X158504762Y-104302438D01*
X158504762Y-104302438D02*
X158647619Y-104254819D01*
X158647619Y-104254819D02*
X158742857Y-104254819D01*
X158742857Y-104254819D02*
X158885714Y-104302438D01*
X158885714Y-104302438D02*
X158933333Y-104350057D01*
X159409524Y-105254819D02*
X159600000Y-105254819D01*
X159600000Y-105254819D02*
X159695238Y-105207200D01*
X159695238Y-105207200D02*
X159742857Y-105159580D01*
X159742857Y-105159580D02*
X159838095Y-105016723D01*
X159838095Y-105016723D02*
X159885714Y-104826247D01*
X159885714Y-104826247D02*
X159885714Y-104445295D01*
X159885714Y-104445295D02*
X159838095Y-104350057D01*
X159838095Y-104350057D02*
X159790476Y-104302438D01*
X159790476Y-104302438D02*
X159695238Y-104254819D01*
X159695238Y-104254819D02*
X159504762Y-104254819D01*
X159504762Y-104254819D02*
X159409524Y-104302438D01*
X159409524Y-104302438D02*
X159361905Y-104350057D01*
X159361905Y-104350057D02*
X159314286Y-104445295D01*
X159314286Y-104445295D02*
X159314286Y-104683390D01*
X159314286Y-104683390D02*
X159361905Y-104778628D01*
X159361905Y-104778628D02*
X159409524Y-104826247D01*
X159409524Y-104826247D02*
X159504762Y-104873866D01*
X159504762Y-104873866D02*
X159695238Y-104873866D01*
X159695238Y-104873866D02*
X159790476Y-104826247D01*
X159790476Y-104826247D02*
X159838095Y-104778628D01*
X159838095Y-104778628D02*
X159885714Y-104683390D01*
X151854761Y-107454819D02*
X151521428Y-106978628D01*
X151283333Y-107454819D02*
X151283333Y-106454819D01*
X151283333Y-106454819D02*
X151664285Y-106454819D01*
X151664285Y-106454819D02*
X151759523Y-106502438D01*
X151759523Y-106502438D02*
X151807142Y-106550057D01*
X151807142Y-106550057D02*
X151854761Y-106645295D01*
X151854761Y-106645295D02*
X151854761Y-106788152D01*
X151854761Y-106788152D02*
X151807142Y-106883390D01*
X151807142Y-106883390D02*
X151759523Y-106931009D01*
X151759523Y-106931009D02*
X151664285Y-106978628D01*
X151664285Y-106978628D02*
X151283333Y-106978628D01*
X152283333Y-107454819D02*
X152283333Y-106454819D01*
X152283333Y-106454819D02*
X152664285Y-106454819D01*
X152664285Y-106454819D02*
X152759523Y-106502438D01*
X152759523Y-106502438D02*
X152807142Y-106550057D01*
X152807142Y-106550057D02*
X152854761Y-106645295D01*
X152854761Y-106645295D02*
X152854761Y-106788152D01*
X152854761Y-106788152D02*
X152807142Y-106883390D01*
X152807142Y-106883390D02*
X152759523Y-106931009D01*
X152759523Y-106931009D02*
X152664285Y-106978628D01*
X152664285Y-106978628D02*
X152283333Y-106978628D01*
X153235714Y-106550057D02*
X153283333Y-106502438D01*
X153283333Y-106502438D02*
X153378571Y-106454819D01*
X153378571Y-106454819D02*
X153616666Y-106454819D01*
X153616666Y-106454819D02*
X153711904Y-106502438D01*
X153711904Y-106502438D02*
X153759523Y-106550057D01*
X153759523Y-106550057D02*
X153807142Y-106645295D01*
X153807142Y-106645295D02*
X153807142Y-106740533D01*
X153807142Y-106740533D02*
X153759523Y-106883390D01*
X153759523Y-106883390D02*
X153188095Y-107454819D01*
X153188095Y-107454819D02*
X153807142Y-107454819D01*
X154426190Y-106454819D02*
X154521428Y-106454819D01*
X154521428Y-106454819D02*
X154616666Y-106502438D01*
X154616666Y-106502438D02*
X154664285Y-106550057D01*
X154664285Y-106550057D02*
X154711904Y-106645295D01*
X154711904Y-106645295D02*
X154759523Y-106835771D01*
X154759523Y-106835771D02*
X154759523Y-107073866D01*
X154759523Y-107073866D02*
X154711904Y-107264342D01*
X154711904Y-107264342D02*
X154664285Y-107359580D01*
X154664285Y-107359580D02*
X154616666Y-107407200D01*
X154616666Y-107407200D02*
X154521428Y-107454819D01*
X154521428Y-107454819D02*
X154426190Y-107454819D01*
X154426190Y-107454819D02*
X154330952Y-107407200D01*
X154330952Y-107407200D02*
X154283333Y-107359580D01*
X154283333Y-107359580D02*
X154235714Y-107264342D01*
X154235714Y-107264342D02*
X154188095Y-107073866D01*
X154188095Y-107073866D02*
X154188095Y-106835771D01*
X154188095Y-106835771D02*
X154235714Y-106645295D01*
X154235714Y-106645295D02*
X154283333Y-106550057D01*
X154283333Y-106550057D02*
X154330952Y-106502438D01*
X154330952Y-106502438D02*
X154426190Y-106454819D01*
X155616666Y-106788152D02*
X155616666Y-107454819D01*
X155378571Y-106407200D02*
X155140476Y-107121485D01*
X155140476Y-107121485D02*
X155759523Y-107121485D01*
X156330952Y-106454819D02*
X156426190Y-106454819D01*
X156426190Y-106454819D02*
X156521428Y-106502438D01*
X156521428Y-106502438D02*
X156569047Y-106550057D01*
X156569047Y-106550057D02*
X156616666Y-106645295D01*
X156616666Y-106645295D02*
X156664285Y-106835771D01*
X156664285Y-106835771D02*
X156664285Y-107073866D01*
X156664285Y-107073866D02*
X156616666Y-107264342D01*
X156616666Y-107264342D02*
X156569047Y-107359580D01*
X156569047Y-107359580D02*
X156521428Y-107407200D01*
X156521428Y-107407200D02*
X156426190Y-107454819D01*
X156426190Y-107454819D02*
X156330952Y-107454819D01*
X156330952Y-107454819D02*
X156235714Y-107407200D01*
X156235714Y-107407200D02*
X156188095Y-107359580D01*
X156188095Y-107359580D02*
X156140476Y-107264342D01*
X156140476Y-107264342D02*
X156092857Y-107073866D01*
X156092857Y-107073866D02*
X156092857Y-106835771D01*
X156092857Y-106835771D02*
X156140476Y-106645295D01*
X156140476Y-106645295D02*
X156188095Y-106550057D01*
X156188095Y-106550057D02*
X156235714Y-106502438D01*
X156235714Y-106502438D02*
X156330952Y-106454819D01*
X153011905Y-78154819D02*
X153011905Y-77154819D01*
X153011905Y-77154819D02*
X153392857Y-77154819D01*
X153392857Y-77154819D02*
X153488095Y-77202438D01*
X153488095Y-77202438D02*
X153535714Y-77250057D01*
X153535714Y-77250057D02*
X153583333Y-77345295D01*
X153583333Y-77345295D02*
X153583333Y-77488152D01*
X153583333Y-77488152D02*
X153535714Y-77583390D01*
X153535714Y-77583390D02*
X153488095Y-77631009D01*
X153488095Y-77631009D02*
X153392857Y-77678628D01*
X153392857Y-77678628D02*
X153011905Y-77678628D01*
X154535714Y-78154819D02*
X153964286Y-78154819D01*
X154250000Y-78154819D02*
X154250000Y-77154819D01*
X154250000Y-77154819D02*
X154154762Y-77297676D01*
X154154762Y-77297676D02*
X154059524Y-77392914D01*
X154059524Y-77392914D02*
X153964286Y-77440533D01*
X160954819Y-92356666D02*
X160478628Y-92689999D01*
X160954819Y-92928094D02*
X159954819Y-92928094D01*
X159954819Y-92928094D02*
X159954819Y-92547142D01*
X159954819Y-92547142D02*
X160002438Y-92451904D01*
X160002438Y-92451904D02*
X160050057Y-92404285D01*
X160050057Y-92404285D02*
X160145295Y-92356666D01*
X160145295Y-92356666D02*
X160288152Y-92356666D01*
X160288152Y-92356666D02*
X160383390Y-92404285D01*
X160383390Y-92404285D02*
X160431009Y-92451904D01*
X160431009Y-92451904D02*
X160478628Y-92547142D01*
X160478628Y-92547142D02*
X160478628Y-92928094D01*
X160050057Y-91975713D02*
X160002438Y-91928094D01*
X160002438Y-91928094D02*
X159954819Y-91832856D01*
X159954819Y-91832856D02*
X159954819Y-91594761D01*
X159954819Y-91594761D02*
X160002438Y-91499523D01*
X160002438Y-91499523D02*
X160050057Y-91451904D01*
X160050057Y-91451904D02*
X160145295Y-91404285D01*
X160145295Y-91404285D02*
X160240533Y-91404285D01*
X160240533Y-91404285D02*
X160383390Y-91451904D01*
X160383390Y-91451904D02*
X160954819Y-92023332D01*
X160954819Y-92023332D02*
X160954819Y-91404285D01*
X160666666Y-78844819D02*
X160666666Y-79559104D01*
X160666666Y-79559104D02*
X160619047Y-79701961D01*
X160619047Y-79701961D02*
X160523809Y-79797200D01*
X160523809Y-79797200D02*
X160380952Y-79844819D01*
X160380952Y-79844819D02*
X160285714Y-79844819D01*
X161095238Y-78940057D02*
X161142857Y-78892438D01*
X161142857Y-78892438D02*
X161238095Y-78844819D01*
X161238095Y-78844819D02*
X161476190Y-78844819D01*
X161476190Y-78844819D02*
X161571428Y-78892438D01*
X161571428Y-78892438D02*
X161619047Y-78940057D01*
X161619047Y-78940057D02*
X161666666Y-79035295D01*
X161666666Y-79035295D02*
X161666666Y-79130533D01*
X161666666Y-79130533D02*
X161619047Y-79273390D01*
X161619047Y-79273390D02*
X161047619Y-79844819D01*
X161047619Y-79844819D02*
X161666666Y-79844819D01*
X153359580Y-87866666D02*
X153407200Y-87914285D01*
X153407200Y-87914285D02*
X153454819Y-88057142D01*
X153454819Y-88057142D02*
X153454819Y-88152380D01*
X153454819Y-88152380D02*
X153407200Y-88295237D01*
X153407200Y-88295237D02*
X153311961Y-88390475D01*
X153311961Y-88390475D02*
X153216723Y-88438094D01*
X153216723Y-88438094D02*
X153026247Y-88485713D01*
X153026247Y-88485713D02*
X152883390Y-88485713D01*
X152883390Y-88485713D02*
X152692914Y-88438094D01*
X152692914Y-88438094D02*
X152597676Y-88390475D01*
X152597676Y-88390475D02*
X152502438Y-88295237D01*
X152502438Y-88295237D02*
X152454819Y-88152380D01*
X152454819Y-88152380D02*
X152454819Y-88057142D01*
X152454819Y-88057142D02*
X152502438Y-87914285D01*
X152502438Y-87914285D02*
X152550057Y-87866666D01*
X152454819Y-86961904D02*
X152454819Y-87438094D01*
X152454819Y-87438094D02*
X152931009Y-87485713D01*
X152931009Y-87485713D02*
X152883390Y-87438094D01*
X152883390Y-87438094D02*
X152835771Y-87342856D01*
X152835771Y-87342856D02*
X152835771Y-87104761D01*
X152835771Y-87104761D02*
X152883390Y-87009523D01*
X152883390Y-87009523D02*
X152931009Y-86961904D01*
X152931009Y-86961904D02*
X153026247Y-86914285D01*
X153026247Y-86914285D02*
X153264342Y-86914285D01*
X153264342Y-86914285D02*
X153359580Y-86961904D01*
X153359580Y-86961904D02*
X153407200Y-87009523D01*
X153407200Y-87009523D02*
X153454819Y-87104761D01*
X153454819Y-87104761D02*
X153454819Y-87342856D01*
X153454819Y-87342856D02*
X153407200Y-87438094D01*
X153407200Y-87438094D02*
X153359580Y-87485713D01*
X157982142Y-108559580D02*
X157934523Y-108607200D01*
X157934523Y-108607200D02*
X157791666Y-108654819D01*
X157791666Y-108654819D02*
X157696428Y-108654819D01*
X157696428Y-108654819D02*
X157553571Y-108607200D01*
X157553571Y-108607200D02*
X157458333Y-108511961D01*
X157458333Y-108511961D02*
X157410714Y-108416723D01*
X157410714Y-108416723D02*
X157363095Y-108226247D01*
X157363095Y-108226247D02*
X157363095Y-108083390D01*
X157363095Y-108083390D02*
X157410714Y-107892914D01*
X157410714Y-107892914D02*
X157458333Y-107797676D01*
X157458333Y-107797676D02*
X157553571Y-107702438D01*
X157553571Y-107702438D02*
X157696428Y-107654819D01*
X157696428Y-107654819D02*
X157791666Y-107654819D01*
X157791666Y-107654819D02*
X157934523Y-107702438D01*
X157934523Y-107702438D02*
X157982142Y-107750057D01*
X158934523Y-108654819D02*
X158363095Y-108654819D01*
X158648809Y-108654819D02*
X158648809Y-107654819D01*
X158648809Y-107654819D02*
X158553571Y-107797676D01*
X158553571Y-107797676D02*
X158458333Y-107892914D01*
X158458333Y-107892914D02*
X158363095Y-107940533D01*
X159886904Y-108654819D02*
X159315476Y-108654819D01*
X159601190Y-108654819D02*
X159601190Y-107654819D01*
X159601190Y-107654819D02*
X159505952Y-107797676D01*
X159505952Y-107797676D02*
X159410714Y-107892914D01*
X159410714Y-107892914D02*
X159315476Y-107940533D01*
X147454819Y-103676666D02*
X146978628Y-104009999D01*
X147454819Y-104248094D02*
X146454819Y-104248094D01*
X146454819Y-104248094D02*
X146454819Y-103867142D01*
X146454819Y-103867142D02*
X146502438Y-103771904D01*
X146502438Y-103771904D02*
X146550057Y-103724285D01*
X146550057Y-103724285D02*
X146645295Y-103676666D01*
X146645295Y-103676666D02*
X146788152Y-103676666D01*
X146788152Y-103676666D02*
X146883390Y-103724285D01*
X146883390Y-103724285D02*
X146931009Y-103771904D01*
X146931009Y-103771904D02*
X146978628Y-103867142D01*
X146978628Y-103867142D02*
X146978628Y-104248094D01*
X146454819Y-102771904D02*
X146454819Y-103248094D01*
X146454819Y-103248094D02*
X146931009Y-103295713D01*
X146931009Y-103295713D02*
X146883390Y-103248094D01*
X146883390Y-103248094D02*
X146835771Y-103152856D01*
X146835771Y-103152856D02*
X146835771Y-102914761D01*
X146835771Y-102914761D02*
X146883390Y-102819523D01*
X146883390Y-102819523D02*
X146931009Y-102771904D01*
X146931009Y-102771904D02*
X147026247Y-102724285D01*
X147026247Y-102724285D02*
X147264342Y-102724285D01*
X147264342Y-102724285D02*
X147359580Y-102771904D01*
X147359580Y-102771904D02*
X147407200Y-102819523D01*
X147407200Y-102819523D02*
X147454819Y-102914761D01*
X147454819Y-102914761D02*
X147454819Y-103152856D01*
X147454819Y-103152856D02*
X147407200Y-103248094D01*
X147407200Y-103248094D02*
X147359580Y-103295713D01*
X150857142Y-94959580D02*
X150809523Y-95007200D01*
X150809523Y-95007200D02*
X150666666Y-95054819D01*
X150666666Y-95054819D02*
X150571428Y-95054819D01*
X150571428Y-95054819D02*
X150428571Y-95007200D01*
X150428571Y-95007200D02*
X150333333Y-94911961D01*
X150333333Y-94911961D02*
X150285714Y-94816723D01*
X150285714Y-94816723D02*
X150238095Y-94626247D01*
X150238095Y-94626247D02*
X150238095Y-94483390D01*
X150238095Y-94483390D02*
X150285714Y-94292914D01*
X150285714Y-94292914D02*
X150333333Y-94197676D01*
X150333333Y-94197676D02*
X150428571Y-94102438D01*
X150428571Y-94102438D02*
X150571428Y-94054819D01*
X150571428Y-94054819D02*
X150666666Y-94054819D01*
X150666666Y-94054819D02*
X150809523Y-94102438D01*
X150809523Y-94102438D02*
X150857142Y-94150057D01*
X151809523Y-95054819D02*
X151238095Y-95054819D01*
X151523809Y-95054819D02*
X151523809Y-94054819D01*
X151523809Y-94054819D02*
X151428571Y-94197676D01*
X151428571Y-94197676D02*
X151333333Y-94292914D01*
X151333333Y-94292914D02*
X151238095Y-94340533D01*
X152714285Y-94054819D02*
X152238095Y-94054819D01*
X152238095Y-94054819D02*
X152190476Y-94531009D01*
X152190476Y-94531009D02*
X152238095Y-94483390D01*
X152238095Y-94483390D02*
X152333333Y-94435771D01*
X152333333Y-94435771D02*
X152571428Y-94435771D01*
X152571428Y-94435771D02*
X152666666Y-94483390D01*
X152666666Y-94483390D02*
X152714285Y-94531009D01*
X152714285Y-94531009D02*
X152761904Y-94626247D01*
X152761904Y-94626247D02*
X152761904Y-94864342D01*
X152761904Y-94864342D02*
X152714285Y-94959580D01*
X152714285Y-94959580D02*
X152666666Y-95007200D01*
X152666666Y-95007200D02*
X152571428Y-95054819D01*
X152571428Y-95054819D02*
X152333333Y-95054819D01*
X152333333Y-95054819D02*
X152238095Y-95007200D01*
X152238095Y-95007200D02*
X152190476Y-94959580D01*
X150757142Y-97659580D02*
X150709523Y-97707200D01*
X150709523Y-97707200D02*
X150566666Y-97754819D01*
X150566666Y-97754819D02*
X150471428Y-97754819D01*
X150471428Y-97754819D02*
X150328571Y-97707200D01*
X150328571Y-97707200D02*
X150233333Y-97611961D01*
X150233333Y-97611961D02*
X150185714Y-97516723D01*
X150185714Y-97516723D02*
X150138095Y-97326247D01*
X150138095Y-97326247D02*
X150138095Y-97183390D01*
X150138095Y-97183390D02*
X150185714Y-96992914D01*
X150185714Y-96992914D02*
X150233333Y-96897676D01*
X150233333Y-96897676D02*
X150328571Y-96802438D01*
X150328571Y-96802438D02*
X150471428Y-96754819D01*
X150471428Y-96754819D02*
X150566666Y-96754819D01*
X150566666Y-96754819D02*
X150709523Y-96802438D01*
X150709523Y-96802438D02*
X150757142Y-96850057D01*
X151709523Y-97754819D02*
X151138095Y-97754819D01*
X151423809Y-97754819D02*
X151423809Y-96754819D01*
X151423809Y-96754819D02*
X151328571Y-96897676D01*
X151328571Y-96897676D02*
X151233333Y-96992914D01*
X151233333Y-96992914D02*
X151138095Y-97040533D01*
X152566666Y-96754819D02*
X152376190Y-96754819D01*
X152376190Y-96754819D02*
X152280952Y-96802438D01*
X152280952Y-96802438D02*
X152233333Y-96850057D01*
X152233333Y-96850057D02*
X152138095Y-96992914D01*
X152138095Y-96992914D02*
X152090476Y-97183390D01*
X152090476Y-97183390D02*
X152090476Y-97564342D01*
X152090476Y-97564342D02*
X152138095Y-97659580D01*
X152138095Y-97659580D02*
X152185714Y-97707200D01*
X152185714Y-97707200D02*
X152280952Y-97754819D01*
X152280952Y-97754819D02*
X152471428Y-97754819D01*
X152471428Y-97754819D02*
X152566666Y-97707200D01*
X152566666Y-97707200D02*
X152614285Y-97659580D01*
X152614285Y-97659580D02*
X152661904Y-97564342D01*
X152661904Y-97564342D02*
X152661904Y-97326247D01*
X152661904Y-97326247D02*
X152614285Y-97231009D01*
X152614285Y-97231009D02*
X152566666Y-97183390D01*
X152566666Y-97183390D02*
X152471428Y-97135771D01*
X152471428Y-97135771D02*
X152280952Y-97135771D01*
X152280952Y-97135771D02*
X152185714Y-97183390D01*
X152185714Y-97183390D02*
X152138095Y-97231009D01*
X152138095Y-97231009D02*
X152090476Y-97326247D01*
X164416666Y-78844819D02*
X164416666Y-79559104D01*
X164416666Y-79559104D02*
X164369047Y-79701961D01*
X164369047Y-79701961D02*
X164273809Y-79797200D01*
X164273809Y-79797200D02*
X164130952Y-79844819D01*
X164130952Y-79844819D02*
X164035714Y-79844819D01*
X164797619Y-78844819D02*
X165416666Y-78844819D01*
X165416666Y-78844819D02*
X165083333Y-79225771D01*
X165083333Y-79225771D02*
X165226190Y-79225771D01*
X165226190Y-79225771D02*
X165321428Y-79273390D01*
X165321428Y-79273390D02*
X165369047Y-79321009D01*
X165369047Y-79321009D02*
X165416666Y-79416247D01*
X165416666Y-79416247D02*
X165416666Y-79654342D01*
X165416666Y-79654342D02*
X165369047Y-79749580D01*
X165369047Y-79749580D02*
X165321428Y-79797200D01*
X165321428Y-79797200D02*
X165226190Y-79844819D01*
X165226190Y-79844819D02*
X164940476Y-79844819D01*
X164940476Y-79844819D02*
X164845238Y-79797200D01*
X164845238Y-79797200D02*
X164797619Y-79749580D01*
X142666666Y-78844819D02*
X142666666Y-79559104D01*
X142666666Y-79559104D02*
X142619047Y-79701961D01*
X142619047Y-79701961D02*
X142523809Y-79797200D01*
X142523809Y-79797200D02*
X142380952Y-79844819D01*
X142380952Y-79844819D02*
X142285714Y-79844819D01*
X143666666Y-79844819D02*
X143095238Y-79844819D01*
X143380952Y-79844819D02*
X143380952Y-78844819D01*
X143380952Y-78844819D02*
X143285714Y-78987676D01*
X143285714Y-78987676D02*
X143190476Y-79082914D01*
X143190476Y-79082914D02*
X143095238Y-79130533D01*
X155099580Y-87866666D02*
X155147200Y-87914285D01*
X155147200Y-87914285D02*
X155194819Y-88057142D01*
X155194819Y-88057142D02*
X155194819Y-88152380D01*
X155194819Y-88152380D02*
X155147200Y-88295237D01*
X155147200Y-88295237D02*
X155051961Y-88390475D01*
X155051961Y-88390475D02*
X154956723Y-88438094D01*
X154956723Y-88438094D02*
X154766247Y-88485713D01*
X154766247Y-88485713D02*
X154623390Y-88485713D01*
X154623390Y-88485713D02*
X154432914Y-88438094D01*
X154432914Y-88438094D02*
X154337676Y-88390475D01*
X154337676Y-88390475D02*
X154242438Y-88295237D01*
X154242438Y-88295237D02*
X154194819Y-88152380D01*
X154194819Y-88152380D02*
X154194819Y-88057142D01*
X154194819Y-88057142D02*
X154242438Y-87914285D01*
X154242438Y-87914285D02*
X154290057Y-87866666D01*
X154194819Y-87009523D02*
X154194819Y-87199999D01*
X154194819Y-87199999D02*
X154242438Y-87295237D01*
X154242438Y-87295237D02*
X154290057Y-87342856D01*
X154290057Y-87342856D02*
X154432914Y-87438094D01*
X154432914Y-87438094D02*
X154623390Y-87485713D01*
X154623390Y-87485713D02*
X155004342Y-87485713D01*
X155004342Y-87485713D02*
X155099580Y-87438094D01*
X155099580Y-87438094D02*
X155147200Y-87390475D01*
X155147200Y-87390475D02*
X155194819Y-87295237D01*
X155194819Y-87295237D02*
X155194819Y-87104761D01*
X155194819Y-87104761D02*
X155147200Y-87009523D01*
X155147200Y-87009523D02*
X155099580Y-86961904D01*
X155099580Y-86961904D02*
X155004342Y-86914285D01*
X155004342Y-86914285D02*
X154766247Y-86914285D01*
X154766247Y-86914285D02*
X154671009Y-86961904D01*
X154671009Y-86961904D02*
X154623390Y-87009523D01*
X154623390Y-87009523D02*
X154575771Y-87104761D01*
X154575771Y-87104761D02*
X154575771Y-87295237D01*
X154575771Y-87295237D02*
X154623390Y-87390475D01*
X154623390Y-87390475D02*
X154671009Y-87438094D01*
X154671009Y-87438094D02*
X154766247Y-87485713D01*
X150704819Y-113576666D02*
X150228628Y-113909999D01*
X150704819Y-114148094D02*
X149704819Y-114148094D01*
X149704819Y-114148094D02*
X149704819Y-113767142D01*
X149704819Y-113767142D02*
X149752438Y-113671904D01*
X149752438Y-113671904D02*
X149800057Y-113624285D01*
X149800057Y-113624285D02*
X149895295Y-113576666D01*
X149895295Y-113576666D02*
X150038152Y-113576666D01*
X150038152Y-113576666D02*
X150133390Y-113624285D01*
X150133390Y-113624285D02*
X150181009Y-113671904D01*
X150181009Y-113671904D02*
X150228628Y-113767142D01*
X150228628Y-113767142D02*
X150228628Y-114148094D01*
X150038152Y-112719523D02*
X150704819Y-112719523D01*
X149657200Y-112957618D02*
X150371485Y-113195713D01*
X150371485Y-113195713D02*
X150371485Y-112576666D01*
X157982142Y-110309580D02*
X157934523Y-110357200D01*
X157934523Y-110357200D02*
X157791666Y-110404819D01*
X157791666Y-110404819D02*
X157696428Y-110404819D01*
X157696428Y-110404819D02*
X157553571Y-110357200D01*
X157553571Y-110357200D02*
X157458333Y-110261961D01*
X157458333Y-110261961D02*
X157410714Y-110166723D01*
X157410714Y-110166723D02*
X157363095Y-109976247D01*
X157363095Y-109976247D02*
X157363095Y-109833390D01*
X157363095Y-109833390D02*
X157410714Y-109642914D01*
X157410714Y-109642914D02*
X157458333Y-109547676D01*
X157458333Y-109547676D02*
X157553571Y-109452438D01*
X157553571Y-109452438D02*
X157696428Y-109404819D01*
X157696428Y-109404819D02*
X157791666Y-109404819D01*
X157791666Y-109404819D02*
X157934523Y-109452438D01*
X157934523Y-109452438D02*
X157982142Y-109500057D01*
X158934523Y-110404819D02*
X158363095Y-110404819D01*
X158648809Y-110404819D02*
X158648809Y-109404819D01*
X158648809Y-109404819D02*
X158553571Y-109547676D01*
X158553571Y-109547676D02*
X158458333Y-109642914D01*
X158458333Y-109642914D02*
X158363095Y-109690533D01*
X159315476Y-109500057D02*
X159363095Y-109452438D01*
X159363095Y-109452438D02*
X159458333Y-109404819D01*
X159458333Y-109404819D02*
X159696428Y-109404819D01*
X159696428Y-109404819D02*
X159791666Y-109452438D01*
X159791666Y-109452438D02*
X159839285Y-109500057D01*
X159839285Y-109500057D02*
X159886904Y-109595295D01*
X159886904Y-109595295D02*
X159886904Y-109690533D01*
X159886904Y-109690533D02*
X159839285Y-109833390D01*
X159839285Y-109833390D02*
X159267857Y-110404819D01*
X159267857Y-110404819D02*
X159886904Y-110404819D01*
D11*
%TO.C,C2*%
X146740000Y-81615580D02*
X146740000Y-81334420D01*
X147760000Y-81615580D02*
X147760000Y-81334420D01*
%TO.C,Y1*%
X145740000Y-98110000D02*
X145740000Y-98060000D01*
X149460000Y-98110000D02*
X145740000Y-98110000D01*
X149460000Y-98060000D02*
X149460000Y-98110000D01*
X149810000Y-98060000D02*
X149460000Y-98060000D01*
X145740000Y-95940000D02*
X145740000Y-94760000D01*
X149460000Y-95940000D02*
X149810000Y-95940000D01*
X149460000Y-94760000D02*
X149460000Y-95940000D01*
X145740000Y-92640000D02*
X145740000Y-92590000D01*
X145740000Y-92590000D02*
X149460000Y-92590000D01*
X149460000Y-92590000D02*
X149460000Y-92640000D01*
%TO.C,C1*%
X146010000Y-81615580D02*
X146010000Y-81334420D01*
X144990000Y-81615580D02*
X144990000Y-81334420D01*
%TO.C,C3*%
X154240000Y-95715580D02*
X154240000Y-95434420D01*
X155260000Y-95715580D02*
X155260000Y-95434420D01*
%TO.C,C10*%
X161434420Y-105940000D02*
X161715580Y-105940000D01*
X161434420Y-106960000D02*
X161715580Y-106960000D01*
%TO.C,U3*%
X154227500Y-112635000D02*
X159747500Y-112635000D01*
X154227500Y-112905000D02*
X154227500Y-112635000D01*
X154227500Y-118155000D02*
X154227500Y-117885000D01*
X159747500Y-112635000D02*
X159747500Y-112905000D01*
X159747500Y-117885000D02*
X159747500Y-118155000D01*
X159747500Y-118155000D02*
X154227500Y-118155000D01*
X153397500Y-112895000D02*
X153057500Y-112425000D01*
X153737500Y-112425000D01*
X153397500Y-112895000D01*
G36*
X153397500Y-112895000D02*
G01*
X153057500Y-112425000D01*
X153737500Y-112425000D01*
X153397500Y-112895000D01*
G37*
%TO.C,C13*%
X161434420Y-111190000D02*
X161715580Y-111190000D01*
X161434420Y-112210000D02*
X161715580Y-112210000D01*
%TO.C,C7*%
X161434420Y-100690000D02*
X161715580Y-100690000D01*
X161434420Y-101710000D02*
X161715580Y-101710000D01*
%TO.C,C8*%
X161434420Y-102440000D02*
X161715580Y-102440000D01*
X161434420Y-103460000D02*
X161715580Y-103460000D01*
%TO.C,R3*%
X145630000Y-116670000D02*
X145630000Y-110130000D01*
X145960000Y-116670000D02*
X145630000Y-116670000D01*
X148040000Y-116670000D02*
X148370000Y-116670000D01*
X148370000Y-116670000D02*
X148370000Y-110130000D01*
X145630000Y-110130000D02*
X145960000Y-110130000D01*
X148370000Y-110130000D02*
X148040000Y-110130000D01*
%TO.C,C14*%
X155565580Y-112210000D02*
X155284420Y-112210000D01*
X155565580Y-111190000D02*
X155284420Y-111190000D01*
%TO.C,R1*%
X158620000Y-88920000D02*
X158620000Y-95460000D01*
X158290000Y-88920000D02*
X158620000Y-88920000D01*
X156210000Y-88920000D02*
X155880000Y-88920000D01*
X155880000Y-88920000D02*
X155880000Y-95460000D01*
X158620000Y-95460000D02*
X158290000Y-95460000D01*
X155880000Y-95460000D02*
X156210000Y-95460000D01*
%TO.C,C4*%
X159384420Y-97490000D02*
X159665580Y-97490000D01*
X159384420Y-98510000D02*
X159665580Y-98510000D01*
%TO.C,U2*%
X144840000Y-85900000D02*
X144840000Y-89660000D01*
X144840000Y-89660000D02*
X146100000Y-89660000D01*
X151660000Y-85900000D02*
X151660000Y-89660000D01*
X151660000Y-89660000D02*
X150400000Y-89660000D01*
X151890000Y-84860000D02*
X151560000Y-84620000D01*
X151890000Y-84380000D01*
X151890000Y-84860000D01*
G36*
X151890000Y-84860000D02*
G01*
X151560000Y-84620000D01*
X151890000Y-84380000D01*
X151890000Y-84860000D01*
G37*
%TO.C,C9*%
X161434420Y-104190000D02*
X161715580Y-104190000D01*
X161434420Y-105210000D02*
X161715580Y-105210000D01*
%TO.C,RP2040*%
X150340000Y-98452500D02*
X150990000Y-98452500D01*
X150340000Y-99102500D02*
X150340000Y-98452500D01*
X150340000Y-105672500D02*
X150340000Y-105022500D01*
X150990000Y-105672500D02*
X150340000Y-105672500D01*
X156910000Y-98452500D02*
X157560000Y-98452500D01*
X157560000Y-98452500D02*
X157560000Y-99102500D01*
X157560000Y-105022500D02*
X157560000Y-105672500D01*
X157560000Y-105672500D02*
X156910000Y-105672500D01*
X149810000Y-99462500D02*
X149480000Y-99702500D01*
X149480000Y-99222500D01*
X149810000Y-99462500D01*
G36*
X149810000Y-99462500D02*
G01*
X149480000Y-99702500D01*
X149480000Y-99222500D01*
X149810000Y-99462500D01*
G37*
%TO.C,P1*%
X149050000Y-75750000D02*
X149050000Y-73850000D01*
X149050000Y-79650000D02*
X149050000Y-77650000D01*
X158450000Y-73850000D02*
X149050000Y-73850000D01*
X158450000Y-75750000D02*
X158450000Y-73850000D01*
X158450000Y-79650000D02*
X158450000Y-77650000D01*
%TO.C,R2*%
X161870000Y-88920000D02*
X161870000Y-95460000D01*
X161540000Y-88920000D02*
X161870000Y-88920000D01*
X159460000Y-88920000D02*
X159130000Y-88920000D01*
X159130000Y-88920000D02*
X159130000Y-95460000D01*
X161870000Y-95460000D02*
X161540000Y-95460000D01*
X159130000Y-95460000D02*
X159460000Y-95460000D01*
%TO.C,J2*%
X159890000Y-80390000D02*
X161000000Y-80390000D01*
X159890000Y-81500000D02*
X159890000Y-80390000D01*
X159890000Y-82500000D02*
X159890000Y-84610000D01*
X159890000Y-82500000D02*
X162110000Y-82500000D01*
X159890000Y-84610000D02*
X162110000Y-84610000D01*
X162110000Y-82500000D02*
X162110000Y-84610000D01*
%TO.C,C5*%
X152490000Y-90365580D02*
X152490000Y-90084420D01*
X153510000Y-90365580D02*
X153510000Y-90084420D01*
%TO.C,C11*%
X161434420Y-107690000D02*
X161715580Y-107690000D01*
X161434420Y-108710000D02*
X161715580Y-108710000D01*
%TO.C,R5*%
X148370000Y-100240000D02*
X148370000Y-106780000D01*
X148040000Y-100240000D02*
X148370000Y-100240000D01*
X145960000Y-100240000D02*
X145630000Y-100240000D01*
X145630000Y-100240000D02*
X145630000Y-106780000D01*
X148370000Y-106780000D02*
X148040000Y-106780000D01*
X145630000Y-106780000D02*
X145960000Y-106780000D01*
%TO.C,C15*%
X151359420Y-92590000D02*
X151640580Y-92590000D01*
X151359420Y-93610000D02*
X151640580Y-93610000D01*
%TO.C,C16*%
X151615580Y-96410000D02*
X151334420Y-96410000D01*
X151615580Y-95390000D02*
X151334420Y-95390000D01*
%TO.C,J3*%
X163640000Y-80390000D02*
X164750000Y-80390000D01*
X163640000Y-81500000D02*
X163640000Y-80390000D01*
X163640000Y-82500000D02*
X163640000Y-116610000D01*
X163640000Y-82500000D02*
X165860000Y-82500000D01*
X163640000Y-116610000D02*
X165860000Y-116610000D01*
X165860000Y-82500000D02*
X165860000Y-116610000D01*
%TO.C,J1*%
X141890000Y-80390000D02*
X143000000Y-80390000D01*
X141890000Y-81500000D02*
X141890000Y-80390000D01*
X141890000Y-82500000D02*
X141890000Y-116610000D01*
X141890000Y-82500000D02*
X144110000Y-82500000D01*
X141890000Y-116610000D02*
X144110000Y-116610000D01*
X144110000Y-82500000D02*
X144110000Y-116610000D01*
%TO.C,C6*%
X154240000Y-90365580D02*
X154240000Y-90084420D01*
X155260000Y-90365580D02*
X155260000Y-90084420D01*
%TO.C,R4*%
X148880000Y-116680000D02*
X148880000Y-110140000D01*
X149210000Y-116680000D02*
X148880000Y-116680000D01*
X151290000Y-116680000D02*
X151620000Y-116680000D01*
X151620000Y-116680000D02*
X151620000Y-110140000D01*
X148880000Y-110140000D02*
X149210000Y-110140000D01*
X151620000Y-110140000D02*
X151290000Y-110140000D01*
%TO.C,C12*%
X161434420Y-109440000D02*
X161715580Y-109440000D01*
X161434420Y-110460000D02*
X161715580Y-110460000D01*
%TD*%
M02*
