%TF.GenerationSoftware,KiCad,Pcbnew,9.0.6*%
%TF.CreationDate,2026-04-09T19:16:37+02:00*%
%TF.ProjectId,HackClubNano,4861636b-436c-4756-924e-616e6f2e6b69,rev?*%
%TF.SameCoordinates,Original*%
%TF.FileFunction,Soldermask,Bot*%
%TF.FilePolarity,Negative*%
%FSLAX46Y46*%
G04 Gerber Fmt 4.6, Leading zero omitted, Abs format (unit mm)*
G04 Created by KiCad (PCBNEW 9.0.6) date 2026-04-09 19:16:37*
%MOMM*%
%LPD*%
G01*
G04 APERTURE LIST*
%ADD10C,1.600000*%
%ADD11C,0.650000*%
%ADD12O,1.000000X2.100000*%
%ADD13O,1.000000X1.600000*%
%ADD14R,1.350000X1.350000*%
%ADD15C,1.350000*%
G04 APERTURE END LIST*
D10*
%TO.C,R3*%
X147000000Y-117210000D03*
X147000000Y-109590000D03*
%TD*%
%TO.C,R1*%
X157250000Y-88380000D03*
X157250000Y-96000000D03*
%TD*%
D11*
%TO.C,P1*%
X156640000Y-80350000D03*
X150860000Y-80350000D03*
D12*
X158070000Y-80880000D03*
D13*
X158070000Y-76700000D03*
D12*
X149430000Y-80880000D03*
D13*
X149430000Y-76700000D03*
%TD*%
D10*
%TO.C,R2*%
X160500000Y-88380000D03*
X160500000Y-96000000D03*
%TD*%
D14*
%TO.C,J2*%
X161000000Y-81500000D03*
D15*
X161000000Y-83500000D03*
%TD*%
D10*
%TO.C,R5*%
X147000000Y-99700000D03*
X147000000Y-107320000D03*
%TD*%
D14*
%TO.C,J3*%
X164750000Y-81500000D03*
D15*
X164750000Y-83500000D03*
X164750000Y-85500000D03*
X164750000Y-87500000D03*
X164750000Y-89500000D03*
X164750000Y-91500000D03*
X164750000Y-93500000D03*
X164750000Y-95500000D03*
X164750000Y-97500000D03*
X164750000Y-99500000D03*
X164750000Y-101500000D03*
X164750000Y-103500000D03*
X164750000Y-105500000D03*
X164750000Y-107500000D03*
X164750000Y-109500000D03*
X164750000Y-111500000D03*
X164750000Y-113500000D03*
X164750000Y-115500000D03*
%TD*%
D14*
%TO.C,J1*%
X143000000Y-81500000D03*
D15*
X143000000Y-83500000D03*
X143000000Y-85500000D03*
X143000000Y-87500000D03*
X143000000Y-89500000D03*
X143000000Y-91500000D03*
X143000000Y-93500000D03*
X143000000Y-95500000D03*
X143000000Y-97500000D03*
X143000000Y-99500000D03*
X143000000Y-101500000D03*
X143000000Y-103500000D03*
X143000000Y-105500000D03*
X143000000Y-107500000D03*
X143000000Y-109500000D03*
X143000000Y-111500000D03*
X143000000Y-113500000D03*
X143000000Y-115500000D03*
%TD*%
D10*
%TO.C,R4*%
X150250000Y-117220000D03*
X150250000Y-109600000D03*
%TD*%
M02*
