M48
; DRILL file {KiCad 9.0.6} date 2026-04-09T19:19:31+0200
; FORMAT={-:-/ absolute / metric / decimal}
; #@! TF.CreationDate,2026-04-09T19:19:31+02:00
; #@! TF.GenerationSoftware,Kicad,Pcbnew,9.0.6
; #@! TF.FileFunction,Plated,1,4,PTH
FMAT,2
METRIC
; #@! TA.AperFunction,Plated,PTH,ViaDrill
T1C0.300
; #@! TA.AperFunction,Plated,PTH,ComponentDrill
T2C0.600
; #@! TA.AperFunction,Plated,PTH,ComponentDrill
T3C0.800
%
G90
G05
T1
X145.5Y-80.7
X146.2Y-101.662
X146.6Y-97.0
X146.7Y-88.6
X146.885Y-101.249
X147.25Y-80.7
X148.25Y-90.9
X148.5Y-100.862
X148.6Y-93.7
X148.6Y-97.0
X148.755Y-100.103
X149.1Y-98.786
X149.2Y-106.465
X149.515Y-98.102
X150.041Y-96.93
X150.3Y-107.4
X150.5Y-81.795
X150.55Y-84.6
X150.649Y-98.625
X150.794Y-97.2
X151.5Y-99.8
X151.515Y-96.8
X152.25Y-95.9
X152.275Y-93.1
X152.72Y-96.971
X153.0Y-89.45
X153.0Y-91.0
X153.4Y-113.49
X153.4Y-114.76
X153.4Y-116.03
X153.4Y-117.3
X153.491Y-96.76
X153.95Y-102.062
X154.55Y-108.0
X154.65Y-111.7
X154.75Y-89.45
X154.75Y-91.0
X154.75Y-94.8
X154.75Y-96.35
X154.948Y-97.811
X155.36Y-99.446
X156.4Y-103.062
X156.573Y-100.26
X156.573Y-101.06
X156.926Y-108.874
X157.0Y-81.795
X157.7Y-98.723
X157.9Y-106.4
X159.013Y-99.213
X159.181Y-103.662
X160.3Y-98.0
X160.575Y-113.49
X160.575Y-114.76
X160.575Y-116.03
X160.575Y-117.3
X160.8Y-101.2
X160.8Y-102.95
X160.8Y-104.7
X160.8Y-106.45
X160.8Y-108.2
X160.8Y-109.95
X160.8Y-111.7
X161.45Y-99.015
X162.35Y-101.2
X162.35Y-102.95
X162.375Y-106.45
X162.375Y-108.2
X162.375Y-109.95
X162.375Y-111.7
X162.4Y-104.7
T3
X143.0Y-81.5
X143.0Y-83.5
X143.0Y-85.5
X143.0Y-87.5
X143.0Y-89.5
X143.0Y-91.5
X143.0Y-93.5
X143.0Y-95.5
X143.0Y-97.5
X143.0Y-99.5
X143.0Y-101.5
X143.0Y-103.5
X143.0Y-105.5
X143.0Y-107.5
X143.0Y-109.5
X143.0Y-111.5
X143.0Y-113.5
X143.0Y-115.5
X147.0Y-99.7
X147.0Y-107.32
X147.0Y-109.59
X147.0Y-117.21
X150.25Y-109.6
X150.25Y-117.22
X157.25Y-88.38
X157.25Y-96.0
X160.5Y-88.38
X160.5Y-96.0
X161.0Y-81.5
X161.0Y-83.5
X164.75Y-81.5
X164.75Y-83.5
X164.75Y-85.5
X164.75Y-87.5
X164.75Y-89.5
X164.75Y-91.5
X164.75Y-93.5
X164.75Y-95.5
X164.75Y-97.5
X164.75Y-99.5
X164.75Y-101.5
X164.75Y-103.5
X164.75Y-105.5
X164.75Y-107.5
X164.75Y-109.5
X164.75Y-111.5
X164.75Y-113.5
X164.75Y-115.5
T2
G00X149.43Y-77.0
M15
G01X149.43Y-76.4
M16
G05
G00X149.43Y-81.43
M15
G01X149.43Y-80.33
M16
G05
G00X158.07Y-77.0
M15
G01X158.07Y-76.4
M16
G05
G00X158.07Y-81.43
M15
G01X158.07Y-80.33
M16
G05
M30
