%TF.GenerationSoftware,KiCad,Pcbnew,9.0.6*%
%TF.CreationDate,2026-04-09T19:16:37+02:00*%
%TF.ProjectId,HackClubNano,4861636b-436c-4756-924e-616e6f2e6b69,rev?*%
%TF.SameCoordinates,Original*%
%TF.FileFunction,Copper,L2,Inr*%
%TF.FilePolarity,Positive*%
%FSLAX46Y46*%
G04 Gerber Fmt 4.6, Leading zero omitted, Abs format (unit mm)*
G04 Created by KiCad (PCBNEW 9.0.6) date 2026-04-09 19:16:37*
%MOMM*%
%LPD*%
G01*
G04 APERTURE LIST*
%TA.AperFunction,ComponentPad*%
%ADD10C,1.600000*%
%TD*%
%TA.AperFunction,HeatsinkPad*%
%ADD11O,1.000000X2.100000*%
%TD*%
%TA.AperFunction,HeatsinkPad*%
%ADD12O,1.000000X1.600000*%
%TD*%
%TA.AperFunction,ComponentPad*%
%ADD13R,1.350000X1.350000*%
%TD*%
%TA.AperFunction,ComponentPad*%
%ADD14C,1.350000*%
%TD*%
%TA.AperFunction,ViaPad*%
%ADD15C,0.600000*%
%TD*%
%TA.AperFunction,Conductor*%
%ADD16C,0.200000*%
%TD*%
G04 APERTURE END LIST*
D10*
%TO.N,Net-(J2-Pin_2)*%
%TO.C,R3*%
X147000000Y-117210000D03*
%TO.N,Net-(U1-QSPI_SS)*%
X147000000Y-109590000D03*
%TD*%
%TO.N,Net-(P1-D-)*%
%TO.C,R1*%
X157250000Y-88380000D03*
%TO.N,Net-(U1-USB_DP)*%
X157250000Y-96000000D03*
%TD*%
D11*
%TO.N,GND*%
%TO.C,P1*%
X158070000Y-80880000D03*
D12*
X158070000Y-76700000D03*
D11*
X149430000Y-80880000D03*
D12*
X149430000Y-76700000D03*
%TD*%
D10*
%TO.N,Net-(P1-D+)*%
%TO.C,R2*%
X160500000Y-88380000D03*
%TO.N,Net-(U1-USB_DM)*%
X160500000Y-96000000D03*
%TD*%
D13*
%TO.N,GND*%
%TO.C,J2*%
X161000000Y-81500000D03*
D14*
%TO.N,Net-(J2-Pin_2)*%
X161000000Y-83500000D03*
%TD*%
D10*
%TO.N,Net-(C15-Pad1)*%
%TO.C,R5*%
X147000000Y-99700000D03*
%TO.N,Net-(U1-XOUT)*%
X147000000Y-107320000D03*
%TD*%
D13*
%TO.N,GPIO28_ADC3*%
%TO.C,J3*%
X164750000Y-81500000D03*
D14*
%TO.N,GPIO28_ADC2*%
X164750000Y-83500000D03*
%TO.N,GPIO27_ADC1*%
X164750000Y-85500000D03*
%TO.N,GPIO26_ADC0*%
X164750000Y-87500000D03*
%TO.N,GPIO25*%
X164750000Y-89500000D03*
%TO.N,GPIO24*%
X164750000Y-91500000D03*
%TO.N,GPIO23*%
X164750000Y-93500000D03*
%TO.N,GPIO22*%
X164750000Y-95500000D03*
%TO.N,GPIO21*%
X164750000Y-97500000D03*
%TO.N,GPIO20*%
X164750000Y-99500000D03*
%TO.N,GPIO19*%
X164750000Y-101500000D03*
%TO.N,GPIO18*%
X164750000Y-103500000D03*
%TO.N,GPIO17*%
X164750000Y-105500000D03*
%TO.N,GPIO16*%
X164750000Y-107500000D03*
%TO.N,RUN*%
X164750000Y-109500000D03*
%TO.N,SWCLK*%
X164750000Y-111500000D03*
%TO.N,SWD*%
X164750000Y-113500000D03*
%TO.N,GND*%
X164750000Y-115500000D03*
%TD*%
D13*
%TO.N,+3.3V*%
%TO.C,J1*%
X143000000Y-81500000D03*
D14*
%TO.N,GPIO0*%
X143000000Y-83500000D03*
%TO.N,GPIO1*%
X143000000Y-85500000D03*
%TO.N,GPIO2*%
X143000000Y-87500000D03*
%TO.N,GPIO3*%
X143000000Y-89500000D03*
%TO.N,GPIO4*%
X143000000Y-91500000D03*
%TO.N,GPIO5*%
X143000000Y-93500000D03*
%TO.N,GPIO6*%
X143000000Y-95500000D03*
%TO.N,GPIO7*%
X143000000Y-97500000D03*
%TO.N,GPIO8*%
X143000000Y-99500000D03*
%TO.N,GPIO9*%
X143000000Y-101500000D03*
%TO.N,GPIO10*%
X143000000Y-103500000D03*
%TO.N,GPIO11*%
X143000000Y-105500000D03*
%TO.N,GPIO12*%
X143000000Y-107500000D03*
%TO.N,GPIO13*%
X143000000Y-109500000D03*
%TO.N,GPIO14*%
X143000000Y-111500000D03*
%TO.N,GPIO15*%
X143000000Y-113500000D03*
%TO.N,GND*%
X143000000Y-115500000D03*
%TD*%
D10*
%TO.N,+3.3V*%
%TO.C,R4*%
X150250000Y-117220000D03*
%TO.N,Net-(U1-QSPI_SS)*%
X150250000Y-109600000D03*
%TD*%
D15*
%TO.N,Net-(J2-Pin_2)*%
X146700000Y-88600000D03*
%TO.N,+1V1*%
X154750000Y-91000000D03*
X153000000Y-91000000D03*
%TO.N,GND*%
X152275000Y-93100000D03*
%TO.N,+3.3V*%
X160575000Y-113490000D03*
%TO.N,Net-(U1-QSPI_SCLK)*%
X152719706Y-96971177D03*
%TO.N,Net-(U1-QSPI_SD0)*%
X151514931Y-96800000D03*
%TO.N,Net-(U1-QSPI_SD2)*%
X150794269Y-97200000D03*
%TO.N,Net-(U1-QSPI_SD1)*%
X150041234Y-96929925D03*
%TO.N,Net-(U1-QSPI_SS)*%
X150649246Y-98625338D03*
X153400000Y-113490000D03*
%TO.N,Net-(U1-QSPI_SD1)*%
X153400000Y-114760000D03*
%TO.N,Net-(U1-QSPI_SD2)*%
X153400000Y-116030000D03*
%TO.N,Net-(U1-QSPI_SD0)*%
X160575000Y-117300000D03*
%TO.N,Net-(U1-QSPI_SCLK)*%
X160575000Y-116030000D03*
%TO.N,Net-(U1-QSPI_SD3)*%
X160575000Y-114760000D03*
X153491362Y-96760109D03*
%TO.N,+3.3V*%
X156400000Y-103062500D03*
X151500000Y-99800000D03*
%TO.N,+1V1*%
X154750000Y-96350000D03*
X154550000Y-108000000D03*
%TO.N,SWCLK*%
X156925735Y-108874265D03*
%TO.N,GPIO17*%
X157900000Y-106400000D03*
%TO.N,GPIO27_ADC1*%
X159012530Y-99212530D03*
%TO.N,GPIO28_ADC3*%
X157700000Y-98722638D03*
%TO.N,GPIO28_ADC2*%
X156573008Y-100260258D03*
%TO.N,GPIO26_ADC0*%
X156573008Y-101060258D03*
%TO.N,GPIO25*%
X161450410Y-99015450D03*
%TO.N,GPIO20*%
X159181250Y-103662500D03*
%TO.N,+3.3V*%
X160800000Y-111700000D03*
X160800000Y-109950000D03*
X160800000Y-108200000D03*
X160800000Y-106450000D03*
X160800000Y-104700000D03*
X160800000Y-102950000D03*
X160800000Y-101200000D03*
%TO.N,Net-(U1-XIN)*%
X148600000Y-97000000D03*
X150300000Y-107400000D03*
%TO.N,GPIO15*%
X149200000Y-106465500D03*
%TO.N,GPIO2*%
X148754604Y-100103133D03*
%TO.N,GPIO1*%
X149100000Y-98785996D03*
%TO.N,GPIO0*%
X149514723Y-98101887D03*
%TO.N,GPIO3*%
X148500000Y-100862500D03*
%TO.N,GPIO4*%
X146884735Y-101248806D03*
%TO.N,GPIO5*%
X146200000Y-101662500D03*
%TO.N,+3.3V*%
X148250000Y-90900000D03*
%TO.N,GND*%
X157000000Y-81795000D03*
X150500000Y-81795000D03*
X147250000Y-80700000D03*
X145500000Y-80700000D03*
X150550000Y-84600000D03*
X154750000Y-89450000D03*
X153000000Y-89450000D03*
X148600000Y-93700000D03*
X146600000Y-97000000D03*
X153950000Y-102062500D03*
X153400000Y-117300000D03*
X154650000Y-111700000D03*
X162375000Y-111700000D03*
X162375000Y-109950000D03*
X162375000Y-108200000D03*
X162375000Y-106450000D03*
X162400000Y-104700000D03*
X162350000Y-102950000D03*
X162350000Y-101200000D03*
X152250000Y-95900000D03*
X154750000Y-94800000D03*
X160300000Y-98000000D03*
%TO.N,Net-(U1-USB_DP)*%
X154948071Y-97810758D03*
%TO.N,Net-(U1-USB_DM)*%
X155360341Y-99445815D03*
%TD*%
D16*
%TO.N,Net-(J2-Pin_2)*%
X145400000Y-89900000D02*
X145400000Y-115610000D01*
X146700000Y-88600000D02*
X145400000Y-89900000D01*
X145400000Y-115610000D02*
X147000000Y-117210000D01*
%TO.N,+1V1*%
X153000000Y-94600000D02*
X153000000Y-91000000D01*
X154750000Y-96350000D02*
X153000000Y-94600000D01*
X153000000Y-91000000D02*
X154750000Y-91000000D01*
%TO.N,+3.3V*%
X153800000Y-96100000D02*
X154149000Y-96449000D01*
X153450000Y-96100000D02*
X153800000Y-96100000D01*
X154149000Y-96449000D02*
X154149000Y-100811500D01*
X154149000Y-100811500D02*
X156400000Y-103062500D01*
X148250000Y-90900000D02*
X153450000Y-96100000D01*
X160800000Y-111700000D02*
X160800000Y-113265000D01*
X160800000Y-113265000D02*
X160575000Y-113490000D01*
%TO.N,Net-(U1-QSPI_SS)*%
X152547000Y-112637000D02*
X153400000Y-113490000D01*
X152547000Y-101847000D02*
X152547000Y-112637000D01*
X150649246Y-98625338D02*
X150649246Y-99949246D01*
X150649246Y-99949246D02*
X152547000Y-101847000D01*
%TO.N,Net-(U1-QSPI_SD1)*%
X154001000Y-112468043D02*
X154001000Y-114159000D01*
X152948000Y-99920831D02*
X152948000Y-111415043D01*
X150828169Y-97801000D02*
X152948000Y-99920831D01*
X150545326Y-97801000D02*
X150828169Y-97801000D01*
X154001000Y-114159000D02*
X153400000Y-114760000D01*
X150041234Y-96929925D02*
X150041234Y-97296908D01*
X150041234Y-97296908D02*
X150545326Y-97801000D01*
X152948000Y-111415043D02*
X154001000Y-112468043D01*
%TO.N,Net-(U1-QSPI_SD2)*%
X154402000Y-115028000D02*
X153400000Y-116030000D01*
X154402000Y-112301943D02*
X154402000Y-115028000D01*
X153349000Y-111248943D02*
X154402000Y-112301943D01*
X153349000Y-99754731D02*
X153349000Y-111248943D01*
X150794269Y-97200000D02*
X153349000Y-99754731D01*
%TO.N,+3.3V*%
X158937500Y-103062500D02*
X159050000Y-102950000D01*
X159050000Y-102950000D02*
X160800000Y-102950000D01*
X156400000Y-103062500D02*
X158937500Y-103062500D01*
%TO.N,GPIO28_ADC3*%
X162571000Y-83679000D02*
X164750000Y-81500000D01*
X162571000Y-92371950D02*
X162571000Y-83679000D01*
X159400000Y-95542950D02*
X162571000Y-92371950D01*
X159400000Y-97022638D02*
X159400000Y-95542950D01*
X157700000Y-98722638D02*
X159400000Y-97022638D01*
%TO.N,GPIO28_ADC2*%
X162972000Y-85278000D02*
X164750000Y-83500000D01*
X162972000Y-96060900D02*
X162972000Y-85278000D01*
X161632900Y-97400000D02*
X162972000Y-96060900D01*
X159975117Y-97400000D02*
X161632900Y-97400000D01*
X157114859Y-100260258D02*
X159975117Y-97400000D01*
X156573008Y-100260258D02*
X157114859Y-100260258D01*
%TO.N,GPIO26_ADC0*%
X163774000Y-88476000D02*
X164750000Y-87500000D01*
X163774000Y-97926000D02*
X163774000Y-88476000D01*
X161200000Y-100500000D02*
X163774000Y-97926000D01*
X159739742Y-101060258D02*
X160300000Y-100500000D01*
X156573008Y-101060258D02*
X159739742Y-101060258D01*
X160300000Y-100500000D02*
X161200000Y-100500000D01*
%TO.N,+3.3V*%
X160800000Y-102950000D02*
X160800000Y-104700000D01*
X160800000Y-101200000D02*
X160800000Y-102950000D01*
X160800000Y-106450000D02*
X160800000Y-104700000D01*
X160800000Y-108200000D02*
X160800000Y-106450000D01*
X160800000Y-109950000D02*
X160800000Y-108200000D01*
X160800000Y-111700000D02*
X160800000Y-109950000D01*
X148250000Y-86750000D02*
X143000000Y-81500000D01*
X148250000Y-90900000D02*
X148250000Y-86750000D01*
%TO.N,GPIO27_ADC1*%
X159012530Y-99212530D02*
X160387470Y-99212530D01*
X163373000Y-86877000D02*
X164750000Y-85500000D01*
X160387470Y-99212530D02*
X163373000Y-96227000D01*
X163373000Y-96227000D02*
X163373000Y-86877000D01*
%TD*%
M02*
