%TF.GenerationSoftware,KiCad,Pcbnew,9.0.6*%
%TF.CreationDate,2026-04-09T19:16:37+02:00*%
%TF.ProjectId,HackClubNano,4861636b-436c-4756-924e-616e6f2e6b69,rev?*%
%TF.SameCoordinates,Original*%
%TF.FileFunction,Soldermask,Top*%
%TF.FilePolarity,Negative*%
%FSLAX46Y46*%
G04 Gerber Fmt 4.6, Leading zero omitted, Abs format (unit mm)*
G04 Created by KiCad (PCBNEW 9.0.6) date 2026-04-09 19:16:37*
%MOMM*%
%LPD*%
G01*
G04 APERTURE LIST*
G04 Aperture macros list*
%AMRoundRect*
0 Rectangle with rounded corners*
0 $1 Rounding radius*
0 $2 $3 $4 $5 $6 $7 $8 $9 X,Y pos of 4 corners*
0 Add a 4 corners polygon primitive as box body*
4,1,4,$2,$3,$4,$5,$6,$7,$8,$9,$2,$3,0*
0 Add four circle primitives for the rounded corners*
1,1,$1+$1,$2,$3*
1,1,$1+$1,$4,$5*
1,1,$1+$1,$6,$7*
1,1,$1+$1,$8,$9*
0 Add four rect primitives between the rounded corners*
20,1,$1+$1,$2,$3,$4,$5,0*
20,1,$1+$1,$4,$5,$6,$7,0*
20,1,$1+$1,$6,$7,$8,$9,0*
20,1,$1+$1,$8,$9,$2,$3,0*%
G04 Aperture macros list end*
%ADD10RoundRect,0.225000X0.250000X-0.225000X0.250000X0.225000X-0.250000X0.225000X-0.250000X-0.225000X0*%
%ADD11RoundRect,0.250000X0.400000X-0.550000X0.400000X0.550000X-0.400000X0.550000X-0.400000X-0.550000X0*%
%ADD12RoundRect,0.225000X-0.225000X-0.250000X0.225000X-0.250000X0.225000X0.250000X-0.225000X0.250000X0*%
%ADD13RoundRect,0.162500X-0.650000X-0.162500X0.650000X-0.162500X0.650000X0.162500X-0.650000X0.162500X0*%
%ADD14C,1.600000*%
%ADD15RoundRect,0.225000X0.225000X0.250000X-0.225000X0.250000X-0.225000X-0.250000X0.225000X-0.250000X0*%
%ADD16RoundRect,0.375000X-0.375000X0.625000X-0.375000X-0.625000X0.375000X-0.625000X0.375000X0.625000X0*%
%ADD17RoundRect,0.500000X-1.400000X0.500000X-1.400000X-0.500000X1.400000X-0.500000X1.400000X0.500000X0*%
%ADD18RoundRect,0.050000X-0.387500X-0.050000X0.387500X-0.050000X0.387500X0.050000X-0.387500X0.050000X0*%
%ADD19RoundRect,0.050000X-0.050000X-0.387500X0.050000X-0.387500X0.050000X0.387500X-0.050000X0.387500X0*%
%ADD20R,3.200000X3.200000*%
%ADD21C,0.650000*%
%ADD22R,0.600000X1.450000*%
%ADD23R,0.300000X1.450000*%
%ADD24O,1.000000X2.100000*%
%ADD25O,1.000000X1.600000*%
%ADD26R,1.350000X1.350000*%
%ADD27C,1.350000*%
G04 APERTURE END LIST*
D10*
%TO.C,C2*%
X147250000Y-82250000D03*
X147250000Y-80700000D03*
%TD*%
D11*
%TO.C,Y1*%
X148600000Y-97000000D03*
X148600000Y-93700000D03*
X146600000Y-93700000D03*
X146600000Y-97000000D03*
%TD*%
D10*
%TO.C,C1*%
X145500000Y-80700000D03*
X145500000Y-82250000D03*
%TD*%
%TO.C,C3*%
X154750000Y-96350000D03*
X154750000Y-94800000D03*
%TD*%
D12*
%TO.C,C10*%
X160800000Y-106450000D03*
X162350000Y-106450000D03*
%TD*%
D13*
%TO.C,U3*%
X153400000Y-113490000D03*
X153400000Y-114760000D03*
X153400000Y-116030000D03*
X153400000Y-117300000D03*
X160575000Y-117300000D03*
X160575000Y-116030000D03*
X160575000Y-114760000D03*
X160575000Y-113490000D03*
%TD*%
D12*
%TO.C,C13*%
X160800000Y-111700000D03*
X162350000Y-111700000D03*
%TD*%
%TO.C,C7*%
X160800000Y-101200000D03*
X162350000Y-101200000D03*
%TD*%
%TO.C,C8*%
X160800000Y-102950000D03*
X162350000Y-102950000D03*
%TD*%
D14*
%TO.C,R3*%
X147000000Y-117210000D03*
X147000000Y-109590000D03*
%TD*%
D15*
%TO.C,C14*%
X156200000Y-111700000D03*
X154650000Y-111700000D03*
%TD*%
D14*
%TO.C,R1*%
X157250000Y-88380000D03*
X157250000Y-96000000D03*
%TD*%
D12*
%TO.C,C4*%
X158750000Y-98000000D03*
X160300000Y-98000000D03*
%TD*%
D16*
%TO.C,U2*%
X150550000Y-84600000D03*
X148250000Y-84600000D03*
D17*
X148250000Y-90900000D03*
D16*
X145950000Y-84600000D03*
%TD*%
D12*
%TO.C,C9*%
X160800000Y-104700000D03*
X162350000Y-104700000D03*
%TD*%
D18*
%TO.C,RP2040*%
X150512500Y-99462500D03*
X150512500Y-99862500D03*
X150512500Y-100262500D03*
X150512500Y-100662500D03*
X150512500Y-101062500D03*
X150512500Y-101462500D03*
X150512500Y-101862500D03*
X150512500Y-102262500D03*
X150512500Y-102662500D03*
X150512500Y-103062500D03*
X150512500Y-103462500D03*
X150512500Y-103862500D03*
X150512500Y-104262500D03*
X150512500Y-104662500D03*
D19*
X151350000Y-105500000D03*
X151750000Y-105500000D03*
X152150000Y-105500000D03*
X152550000Y-105500000D03*
X152950000Y-105500000D03*
X153350000Y-105500000D03*
X153750000Y-105500000D03*
X154150000Y-105500000D03*
X154550000Y-105500000D03*
X154950000Y-105500000D03*
X155350000Y-105500000D03*
X155750000Y-105500000D03*
X156150000Y-105500000D03*
X156550000Y-105500000D03*
D18*
X157387500Y-104662500D03*
X157387500Y-104262500D03*
X157387500Y-103862500D03*
X157387500Y-103462500D03*
X157387500Y-103062500D03*
X157387500Y-102662500D03*
X157387500Y-102262500D03*
X157387500Y-101862500D03*
X157387500Y-101462500D03*
X157387500Y-101062500D03*
X157387500Y-100662500D03*
X157387500Y-100262500D03*
X157387500Y-99862500D03*
X157387500Y-99462500D03*
D19*
X156550000Y-98625000D03*
X156150000Y-98625000D03*
X155750000Y-98625000D03*
X155350000Y-98625000D03*
X154950000Y-98625000D03*
X154550000Y-98625000D03*
X154150000Y-98625000D03*
X153750000Y-98625000D03*
X153350000Y-98625000D03*
X152950000Y-98625000D03*
X152550000Y-98625000D03*
X152150000Y-98625000D03*
X151750000Y-98625000D03*
X151350000Y-98625000D03*
D20*
X153950000Y-102062500D03*
%TD*%
D21*
%TO.C,P1*%
X156640000Y-80350000D03*
X150860000Y-80350000D03*
D22*
X157000000Y-81795000D03*
X156200000Y-81795000D03*
D23*
X155000000Y-81795000D03*
X154000000Y-81795000D03*
X153500000Y-81795000D03*
X152500000Y-81795000D03*
D22*
X151300000Y-81795000D03*
X150500000Y-81795000D03*
X150500000Y-81795000D03*
X151300000Y-81795000D03*
D23*
X152000000Y-81795000D03*
X153000000Y-81795000D03*
X154500000Y-81795000D03*
X155500000Y-81795000D03*
D22*
X156200000Y-81795000D03*
X157000000Y-81795000D03*
D24*
X158070000Y-80880000D03*
D25*
X158070000Y-76700000D03*
D24*
X149430000Y-80880000D03*
D25*
X149430000Y-76700000D03*
%TD*%
D14*
%TO.C,R2*%
X160500000Y-88380000D03*
X160500000Y-96000000D03*
%TD*%
D26*
%TO.C,J2*%
X161000000Y-81500000D03*
D27*
X161000000Y-83500000D03*
%TD*%
D10*
%TO.C,C5*%
X153000000Y-91000000D03*
X153000000Y-89450000D03*
%TD*%
D12*
%TO.C,C11*%
X160800000Y-108200000D03*
X162350000Y-108200000D03*
%TD*%
D14*
%TO.C,R5*%
X147000000Y-99700000D03*
X147000000Y-107320000D03*
%TD*%
D12*
%TO.C,C15*%
X150725000Y-93100000D03*
X152275000Y-93100000D03*
%TD*%
D15*
%TO.C,C16*%
X152250000Y-95900000D03*
X150700000Y-95900000D03*
%TD*%
D26*
%TO.C,J3*%
X164750000Y-81500000D03*
D27*
X164750000Y-83500000D03*
X164750000Y-85500000D03*
X164750000Y-87500000D03*
X164750000Y-89500000D03*
X164750000Y-91500000D03*
X164750000Y-93500000D03*
X164750000Y-95500000D03*
X164750000Y-97500000D03*
X164750000Y-99500000D03*
X164750000Y-101500000D03*
X164750000Y-103500000D03*
X164750000Y-105500000D03*
X164750000Y-107500000D03*
X164750000Y-109500000D03*
X164750000Y-111500000D03*
X164750000Y-113500000D03*
X164750000Y-115500000D03*
%TD*%
D26*
%TO.C,J1*%
X143000000Y-81500000D03*
D27*
X143000000Y-83500000D03*
X143000000Y-85500000D03*
X143000000Y-87500000D03*
X143000000Y-89500000D03*
X143000000Y-91500000D03*
X143000000Y-93500000D03*
X143000000Y-95500000D03*
X143000000Y-97500000D03*
X143000000Y-99500000D03*
X143000000Y-101500000D03*
X143000000Y-103500000D03*
X143000000Y-105500000D03*
X143000000Y-107500000D03*
X143000000Y-109500000D03*
X143000000Y-111500000D03*
X143000000Y-113500000D03*
X143000000Y-115500000D03*
%TD*%
D10*
%TO.C,C6*%
X154750000Y-91000000D03*
X154750000Y-89450000D03*
%TD*%
D14*
%TO.C,R4*%
X150250000Y-117220000D03*
X150250000Y-109600000D03*
%TD*%
D12*
%TO.C,C12*%
X160800000Y-109950000D03*
X162350000Y-109950000D03*
%TD*%
M02*
