%TF.GenerationSoftware,KiCad,Pcbnew,9.0.6*%
%TF.CreationDate,2026-04-09T19:16:37+02:00*%
%TF.ProjectId,HackClubNano,4861636b-436c-4756-924e-616e6f2e6b69,rev?*%
%TF.SameCoordinates,Original*%
%TF.FileFunction,Copper,L1,Top*%
%TF.FilePolarity,Positive*%
%FSLAX46Y46*%
G04 Gerber Fmt 4.6, Leading zero omitted, Abs format (unit mm)*
G04 Created by KiCad (PCBNEW 9.0.6) date 2026-04-09 19:16:37*
%MOMM*%
%LPD*%
G01*
G04 APERTURE LIST*
G04 Aperture macros list*
%AMRoundRect*
0 Rectangle with rounded corners*
0 $1 Rounding radius*
0 $2 $3 $4 $5 $6 $7 $8 $9 X,Y pos of 4 corners*
0 Add a 4 corners polygon primitive as box body*
4,1,4,$2,$3,$4,$5,$6,$7,$8,$9,$2,$3,0*
0 Add four circle primitives for the rounded corners*
1,1,$1+$1,$2,$3*
1,1,$1+$1,$4,$5*
1,1,$1+$1,$6,$7*
1,1,$1+$1,$8,$9*
0 Add four rect primitives between the rounded corners*
20,1,$1+$1,$2,$3,$4,$5,0*
20,1,$1+$1,$4,$5,$6,$7,0*
20,1,$1+$1,$6,$7,$8,$9,0*
20,1,$1+$1,$8,$9,$2,$3,0*%
G04 Aperture macros list end*
%TA.AperFunction,SMDPad,CuDef*%
%ADD10RoundRect,0.225000X0.250000X-0.225000X0.250000X0.225000X-0.250000X0.225000X-0.250000X-0.225000X0*%
%TD*%
%TA.AperFunction,SMDPad,CuDef*%
%ADD11RoundRect,0.250000X0.400000X-0.550000X0.400000X0.550000X-0.400000X0.550000X-0.400000X-0.550000X0*%
%TD*%
%TA.AperFunction,SMDPad,CuDef*%
%ADD12RoundRect,0.225000X-0.225000X-0.250000X0.225000X-0.250000X0.225000X0.250000X-0.225000X0.250000X0*%
%TD*%
%TA.AperFunction,SMDPad,CuDef*%
%ADD13RoundRect,0.162500X-0.650000X-0.162500X0.650000X-0.162500X0.650000X0.162500X-0.650000X0.162500X0*%
%TD*%
%TA.AperFunction,ComponentPad*%
%ADD14C,1.600000*%
%TD*%
%TA.AperFunction,SMDPad,CuDef*%
%ADD15RoundRect,0.225000X0.225000X0.250000X-0.225000X0.250000X-0.225000X-0.250000X0.225000X-0.250000X0*%
%TD*%
%TA.AperFunction,SMDPad,CuDef*%
%ADD16RoundRect,0.375000X-0.375000X0.625000X-0.375000X-0.625000X0.375000X-0.625000X0.375000X0.625000X0*%
%TD*%
%TA.AperFunction,SMDPad,CuDef*%
%ADD17RoundRect,0.500000X-1.400000X0.500000X-1.400000X-0.500000X1.400000X-0.500000X1.400000X0.500000X0*%
%TD*%
%TA.AperFunction,SMDPad,CuDef*%
%ADD18RoundRect,0.050000X-0.387500X-0.050000X0.387500X-0.050000X0.387500X0.050000X-0.387500X0.050000X0*%
%TD*%
%TA.AperFunction,SMDPad,CuDef*%
%ADD19RoundRect,0.050000X-0.050000X-0.387500X0.050000X-0.387500X0.050000X0.387500X-0.050000X0.387500X0*%
%TD*%
%TA.AperFunction,HeatsinkPad*%
%ADD20R,3.200000X3.200000*%
%TD*%
%TA.AperFunction,SMDPad,CuDef*%
%ADD21R,0.600000X1.450000*%
%TD*%
%TA.AperFunction,SMDPad,CuDef*%
%ADD22R,0.300000X1.450000*%
%TD*%
%TA.AperFunction,HeatsinkPad*%
%ADD23O,1.000000X2.100000*%
%TD*%
%TA.AperFunction,HeatsinkPad*%
%ADD24O,1.000000X1.600000*%
%TD*%
%TA.AperFunction,ComponentPad*%
%ADD25R,1.350000X1.350000*%
%TD*%
%TA.AperFunction,ComponentPad*%
%ADD26C,1.350000*%
%TD*%
%TA.AperFunction,ViaPad*%
%ADD27C,0.600000*%
%TD*%
%TA.AperFunction,Conductor*%
%ADD28C,0.200000*%
%TD*%
G04 APERTURE END LIST*
D10*
%TO.P,C2,1*%
%TO.N,+3.3V*%
X147250000Y-82250000D03*
%TO.P,C2,2*%
%TO.N,GND*%
X147250000Y-80700000D03*
%TD*%
D11*
%TO.P,Y1,1,1*%
%TO.N,Net-(U1-XIN)*%
X148600000Y-97000000D03*
%TO.P,Y1,2,2*%
%TO.N,GND*%
X148600000Y-93700000D03*
%TO.P,Y1,3,3*%
%TO.N,Net-(C15-Pad1)*%
X146600000Y-93700000D03*
%TO.P,Y1,4,4*%
%TO.N,GND*%
X146600000Y-97000000D03*
%TD*%
D10*
%TO.P,C1,2*%
%TO.N,GND*%
X145500000Y-80700000D03*
%TO.P,C1,1*%
%TO.N,Net-(U2-VI)*%
X145500000Y-82250000D03*
%TD*%
%TO.P,C3,1*%
%TO.N,+1V1*%
X154750000Y-96350000D03*
%TO.P,C3,2*%
%TO.N,GND*%
X154750000Y-94800000D03*
%TD*%
D12*
%TO.P,C10,1*%
%TO.N,+3.3V*%
X160800000Y-106450000D03*
%TO.P,C10,2*%
%TO.N,GND*%
X162350000Y-106450000D03*
%TD*%
D13*
%TO.P,U3,1,~{CS}*%
%TO.N,Net-(U1-QSPI_SS)*%
X153400000Y-113490000D03*
%TO.P,U3,2,DO/IO_{1}*%
%TO.N,Net-(U1-QSPI_SD1)*%
X153400000Y-114760000D03*
%TO.P,U3,3,~{WP}/IO_{2}*%
%TO.N,Net-(U1-QSPI_SD2)*%
X153400000Y-116030000D03*
%TO.P,U3,4,GND*%
%TO.N,GND*%
X153400000Y-117300000D03*
%TO.P,U3,5,DI/IO_{0}*%
%TO.N,Net-(U1-QSPI_SD0)*%
X160575000Y-117300000D03*
%TO.P,U3,6,CLK*%
%TO.N,Net-(U1-QSPI_SCLK)*%
X160575000Y-116030000D03*
%TO.P,U3,7,~{HOLD}/~{RESET}/IO_{3}*%
%TO.N,Net-(U1-QSPI_SD3)*%
X160575000Y-114760000D03*
%TO.P,U3,8,VCC*%
%TO.N,+3.3V*%
X160575000Y-113490000D03*
%TD*%
D12*
%TO.P,C13,1*%
%TO.N,+3.3V*%
X160800000Y-111700000D03*
%TO.P,C13,2*%
%TO.N,GND*%
X162350000Y-111700000D03*
%TD*%
%TO.P,C7,1*%
%TO.N,+3.3V*%
X160800000Y-101200000D03*
%TO.P,C7,2*%
%TO.N,GND*%
X162350000Y-101200000D03*
%TD*%
%TO.P,C8,1*%
%TO.N,+3.3V*%
X160800000Y-102950000D03*
%TO.P,C8,2*%
%TO.N,GND*%
X162350000Y-102950000D03*
%TD*%
D14*
%TO.P,R3,1*%
%TO.N,Net-(J2-Pin_2)*%
X147000000Y-117210000D03*
%TO.P,R3,2*%
%TO.N,Net-(U1-QSPI_SS)*%
X147000000Y-109590000D03*
%TD*%
D15*
%TO.P,C14,1*%
%TO.N,+3.3V*%
X156200000Y-111700000D03*
%TO.P,C14,2*%
%TO.N,GND*%
X154650000Y-111700000D03*
%TD*%
D14*
%TO.P,R1,1*%
%TO.N,Net-(P1-D-)*%
X157250000Y-88380000D03*
%TO.P,R1,2*%
%TO.N,Net-(U1-USB_DP)*%
X157250000Y-96000000D03*
%TD*%
D12*
%TO.P,C4,1*%
%TO.N,+3.3V*%
X158750000Y-98000000D03*
%TO.P,C4,2*%
%TO.N,GND*%
X160300000Y-98000000D03*
%TD*%
D16*
%TO.P,U2,1,GND*%
%TO.N,GND*%
X150550000Y-84600000D03*
%TO.P,U2,2,VO*%
%TO.N,+3.3V*%
X148250000Y-84600000D03*
D17*
X148250000Y-90900000D03*
D16*
%TO.P,U2,3,VI*%
%TO.N,Net-(U2-VI)*%
X145950000Y-84600000D03*
%TD*%
D12*
%TO.P,C9,1*%
%TO.N,+3.3V*%
X160800000Y-104700000D03*
%TO.P,C9,2*%
%TO.N,GND*%
X162350000Y-104700000D03*
%TD*%
D18*
%TO.P,RP2040,1,IOVDD*%
%TO.N,+3.3V*%
X150512500Y-99462500D03*
%TO.P,RP2040,2,GPIO0*%
%TO.N,GPIO0*%
X150512500Y-99862500D03*
%TO.P,RP2040,3,GPIO1*%
%TO.N,GPIO1*%
X150512500Y-100262500D03*
%TO.P,RP2040,4,GPIO2*%
%TO.N,GPIO2*%
X150512500Y-100662500D03*
%TO.P,RP2040,5,GPIO3*%
%TO.N,GPIO3*%
X150512500Y-101062500D03*
%TO.P,RP2040,6,GPIO4*%
%TO.N,GPIO4*%
X150512500Y-101462500D03*
%TO.P,RP2040,7,GPIO5*%
%TO.N,GPIO5*%
X150512500Y-101862500D03*
%TO.P,RP2040,8,GPIO6*%
%TO.N,GPIO6*%
X150512500Y-102262500D03*
%TO.P,RP2040,9,GPIO7*%
%TO.N,GPIO7*%
X150512500Y-102662500D03*
%TO.P,RP2040,10,IOVDD*%
%TO.N,+3.3V*%
X150512500Y-103062500D03*
%TO.P,RP2040,11,GPIO8*%
%TO.N,GPIO8*%
X150512500Y-103462500D03*
%TO.P,RP2040,12,GPIO9*%
%TO.N,GPIO9*%
X150512500Y-103862500D03*
%TO.P,RP2040,13,GPIO10*%
%TO.N,GPIO10*%
X150512500Y-104262500D03*
%TO.P,RP2040,14,GPIO11*%
%TO.N,GPIO11*%
X150512500Y-104662500D03*
D19*
%TO.P,RP2040,15,GPIO12*%
%TO.N,GPIO12*%
X151350000Y-105500000D03*
%TO.P,RP2040,16,GPIO13*%
%TO.N,GPIO13*%
X151750000Y-105500000D03*
%TO.P,RP2040,17,GPIO14*%
%TO.N,GPIO14*%
X152150000Y-105500000D03*
%TO.P,RP2040,18,GPIO15*%
%TO.N,GPIO15*%
X152550000Y-105500000D03*
%TO.P,RP2040,19,TESTEN*%
%TO.N,GND*%
X152950000Y-105500000D03*
%TO.P,RP2040,20,XIN*%
%TO.N,Net-(U1-XIN)*%
X153350000Y-105500000D03*
%TO.P,RP2040,21,XOUT*%
%TO.N,Net-(U1-XOUT)*%
X153750000Y-105500000D03*
%TO.P,RP2040,22,IOVDD*%
%TO.N,+3.3V*%
X154150000Y-105500000D03*
%TO.P,RP2040,23,DVDD*%
%TO.N,+1V1*%
X154550000Y-105500000D03*
%TO.P,RP2040,24,SWCLK*%
%TO.N,SWCLK*%
X154950000Y-105500000D03*
%TO.P,RP2040,25,SWD*%
%TO.N,SWD*%
X155350000Y-105500000D03*
%TO.P,RP2040,26,RUN*%
%TO.N,RUN*%
X155750000Y-105500000D03*
%TO.P,RP2040,27,GPIO16*%
%TO.N,GPIO16*%
X156150000Y-105500000D03*
%TO.P,RP2040,28,GPIO17*%
%TO.N,GPIO17*%
X156550000Y-105500000D03*
D18*
%TO.P,RP2040,29,GPIO18*%
%TO.N,GPIO18*%
X157387500Y-104662500D03*
%TO.P,RP2040,30,GPIO19*%
%TO.N,GPIO19*%
X157387500Y-104262500D03*
%TO.P,RP2040,31,GPIO20*%
%TO.N,GPIO20*%
X157387500Y-103862500D03*
%TO.P,RP2040,32,GPIO21*%
%TO.N,GPIO21*%
X157387500Y-103462500D03*
%TO.P,RP2040,33,IOVDD*%
%TO.N,+3.3V*%
X157387500Y-103062500D03*
%TO.P,RP2040,34,GPIO22*%
%TO.N,GPIO22*%
X157387500Y-102662500D03*
%TO.P,RP2040,35,GPIO23*%
%TO.N,GPIO23*%
X157387500Y-102262500D03*
%TO.P,RP2040,36,GPIO24*%
%TO.N,GPIO24*%
X157387500Y-101862500D03*
%TO.P,RP2040,37,GPIO25*%
%TO.N,GPIO25*%
X157387500Y-101462500D03*
%TO.P,RP2040,38,GPIO26_ADC0*%
%TO.N,GPIO26_ADC0*%
X157387500Y-101062500D03*
%TO.P,RP2040,39,GPIO27_ADC1*%
%TO.N,GPIO27_ADC1*%
X157387500Y-100662500D03*
%TO.P,RP2040,40,GPIO28_ADC2*%
%TO.N,GPIO28_ADC2*%
X157387500Y-100262500D03*
%TO.P,RP2040,41,GPIO29_ADC3*%
%TO.N,GPIO28_ADC3*%
X157387500Y-99862500D03*
%TO.P,RP2040,42,IOVDD*%
%TO.N,+3.3V*%
X157387500Y-99462500D03*
D19*
%TO.P,RP2040,43,ADC_AVDD*%
X156550000Y-98625000D03*
%TO.P,RP2040,44,VREG_IN*%
X156150000Y-98625000D03*
%TO.P,RP2040,45,VREG_VOUT*%
%TO.N,+1V1*%
X155750000Y-98625000D03*
%TO.P,RP2040,46,USB_DM*%
%TO.N,Net-(U1-USB_DM)*%
X155350000Y-98625000D03*
%TO.P,RP2040,47,USB_DP*%
%TO.N,Net-(U1-USB_DP)*%
X154950000Y-98625000D03*
%TO.P,RP2040,48,USB_VDD*%
%TO.N,+3.3V*%
X154550000Y-98625000D03*
%TO.P,RP2040,49,IOVDD*%
X154150000Y-98625000D03*
%TO.P,RP2040,50,DVDD*%
%TO.N,+1V1*%
X153750000Y-98625000D03*
%TO.P,RP2040,51,QSPI_SD3*%
%TO.N,Net-(U1-QSPI_SD3)*%
X153350000Y-98625000D03*
%TO.P,RP2040,52,QSPI_SCLK*%
%TO.N,Net-(U1-QSPI_SCLK)*%
X152950000Y-98625000D03*
%TO.P,RP2040,53,QSPI_SD0*%
%TO.N,Net-(U1-QSPI_SD0)*%
X152550000Y-98625000D03*
%TO.P,RP2040,54,QSPI_SD2*%
%TO.N,Net-(U1-QSPI_SD2)*%
X152150000Y-98625000D03*
%TO.P,RP2040,55,QSPI_SD1*%
%TO.N,Net-(U1-QSPI_SD1)*%
X151750000Y-98625000D03*
%TO.P,RP2040,56,QSPI_SS*%
%TO.N,Net-(U1-QSPI_SS)*%
X151350000Y-98625000D03*
D20*
%TO.P,RP2040,57,GND*%
%TO.N,GND*%
X153950000Y-102062500D03*
%TD*%
D21*
%TO.P,P1,A1,GND*%
%TO.N,GND*%
X157000000Y-81795000D03*
%TO.P,P1,A4,VBUS*%
%TO.N,Net-(U2-VI)*%
X156200000Y-81795000D03*
D22*
%TO.P,P1,A5,CC*%
%TO.N,unconnected-(P1-CC-PadA5)*%
X155000000Y-81795000D03*
%TO.P,P1,A6,D+*%
%TO.N,Net-(P1-D+)*%
X154000000Y-81795000D03*
%TO.P,P1,A7,D-*%
%TO.N,Net-(P1-D-)*%
X153500000Y-81795000D03*
%TO.P,P1,A8*%
%TO.N,N/C*%
X152500000Y-81795000D03*
D21*
%TO.P,P1,A9,VBUS*%
%TO.N,Net-(U2-VI)*%
X151300000Y-81795000D03*
%TO.P,P1,A12,GND*%
%TO.N,GND*%
X150500000Y-81795000D03*
%TO.P,P1,B1,GND*%
X150500000Y-81795000D03*
%TO.P,P1,B4,VBUS*%
%TO.N,Net-(U2-VI)*%
X151300000Y-81795000D03*
D22*
%TO.P,P1,B5,VCONN*%
%TO.N,unconnected-(P1-VCONN-PadB5)*%
X152000000Y-81795000D03*
%TO.P,P1,B6*%
%TO.N,N/C*%
X153000000Y-81795000D03*
%TO.P,P1,B7*%
X154500000Y-81795000D03*
%TO.P,P1,B8*%
X155500000Y-81795000D03*
D21*
%TO.P,P1,B9,VBUS*%
%TO.N,Net-(U2-VI)*%
X156200000Y-81795000D03*
%TO.P,P1,B12,GND*%
%TO.N,GND*%
X157000000Y-81795000D03*
D23*
%TO.P,P1,S1,SHIELD*%
X158070000Y-80880000D03*
D24*
X158070000Y-76700000D03*
D23*
X149430000Y-80880000D03*
D24*
X149430000Y-76700000D03*
%TD*%
D14*
%TO.P,R2,1*%
%TO.N,Net-(P1-D+)*%
X160500000Y-88380000D03*
%TO.P,R2,2*%
%TO.N,Net-(U1-USB_DM)*%
X160500000Y-96000000D03*
%TD*%
D25*
%TO.P,J2,1,Pin_1*%
%TO.N,GND*%
X161000000Y-81500000D03*
D26*
%TO.P,J2,2,Pin_2*%
%TO.N,Net-(J2-Pin_2)*%
X161000000Y-83500000D03*
%TD*%
D10*
%TO.P,C5,1*%
%TO.N,+1V1*%
X153000000Y-91000000D03*
%TO.P,C5,2*%
%TO.N,GND*%
X153000000Y-89450000D03*
%TD*%
D12*
%TO.P,C11,1*%
%TO.N,+3.3V*%
X160800000Y-108200000D03*
%TO.P,C11,2*%
%TO.N,GND*%
X162350000Y-108200000D03*
%TD*%
D14*
%TO.P,R5,1*%
%TO.N,Net-(C15-Pad1)*%
X147000000Y-99700000D03*
%TO.P,R5,2*%
%TO.N,Net-(U1-XOUT)*%
X147000000Y-107320000D03*
%TD*%
D12*
%TO.P,C15,1*%
%TO.N,Net-(C15-Pad1)*%
X150725000Y-93100000D03*
%TO.P,C15,2*%
%TO.N,GND*%
X152275000Y-93100000D03*
%TD*%
D15*
%TO.P,C16,1*%
%TO.N,GND*%
X152250000Y-95900000D03*
%TO.P,C16,2*%
%TO.N,Net-(U1-XIN)*%
X150700000Y-95900000D03*
%TD*%
D25*
%TO.P,J3,1,Pin_1*%
%TO.N,GPIO28_ADC3*%
X164750000Y-81500000D03*
D26*
%TO.P,J3,2,Pin_2*%
%TO.N,GPIO28_ADC2*%
X164750000Y-83500000D03*
%TO.P,J3,3,Pin_3*%
%TO.N,GPIO27_ADC1*%
X164750000Y-85500000D03*
%TO.P,J3,4,Pin_4*%
%TO.N,GPIO26_ADC0*%
X164750000Y-87500000D03*
%TO.P,J3,5,Pin_5*%
%TO.N,GPIO25*%
X164750000Y-89500000D03*
%TO.P,J3,6,Pin_6*%
%TO.N,GPIO24*%
X164750000Y-91500000D03*
%TO.P,J3,7,Pin_7*%
%TO.N,GPIO23*%
X164750000Y-93500000D03*
%TO.P,J3,8,Pin_8*%
%TO.N,GPIO22*%
X164750000Y-95500000D03*
%TO.P,J3,9,Pin_9*%
%TO.N,GPIO21*%
X164750000Y-97500000D03*
%TO.P,J3,10,Pin_10*%
%TO.N,GPIO20*%
X164750000Y-99500000D03*
%TO.P,J3,11,Pin_11*%
%TO.N,GPIO19*%
X164750000Y-101500000D03*
%TO.P,J3,12,Pin_12*%
%TO.N,GPIO18*%
X164750000Y-103500000D03*
%TO.P,J3,13,Pin_13*%
%TO.N,GPIO17*%
X164750000Y-105500000D03*
%TO.P,J3,14,Pin_14*%
%TO.N,GPIO16*%
X164750000Y-107500000D03*
%TO.P,J3,15,Pin_15*%
%TO.N,RUN*%
X164750000Y-109500000D03*
%TO.P,J3,16,Pin_16*%
%TO.N,SWCLK*%
X164750000Y-111500000D03*
%TO.P,J3,17,Pin_17*%
%TO.N,SWD*%
X164750000Y-113500000D03*
%TO.P,J3,18,Pin_18*%
%TO.N,GND*%
X164750000Y-115500000D03*
%TD*%
D25*
%TO.P,J1,1,Pin_1*%
%TO.N,+3.3V*%
X143000000Y-81500000D03*
D26*
%TO.P,J1,2,Pin_2*%
%TO.N,GPIO0*%
X143000000Y-83500000D03*
%TO.P,J1,3,Pin_3*%
%TO.N,GPIO1*%
X143000000Y-85500000D03*
%TO.P,J1,4,Pin_4*%
%TO.N,GPIO2*%
X143000000Y-87500000D03*
%TO.P,J1,5,Pin_5*%
%TO.N,GPIO3*%
X143000000Y-89500000D03*
%TO.P,J1,6,Pin_6*%
%TO.N,GPIO4*%
X143000000Y-91500000D03*
%TO.P,J1,7,Pin_7*%
%TO.N,GPIO5*%
X143000000Y-93500000D03*
%TO.P,J1,8,Pin_8*%
%TO.N,GPIO6*%
X143000000Y-95500000D03*
%TO.P,J1,9,Pin_9*%
%TO.N,GPIO7*%
X143000000Y-97500000D03*
%TO.P,J1,10,Pin_10*%
%TO.N,GPIO8*%
X143000000Y-99500000D03*
%TO.P,J1,11,Pin_11*%
%TO.N,GPIO9*%
X143000000Y-101500000D03*
%TO.P,J1,12,Pin_12*%
%TO.N,GPIO10*%
X143000000Y-103500000D03*
%TO.P,J1,13,Pin_13*%
%TO.N,GPIO11*%
X143000000Y-105500000D03*
%TO.P,J1,14,Pin_14*%
%TO.N,GPIO12*%
X143000000Y-107500000D03*
%TO.P,J1,15,Pin_15*%
%TO.N,GPIO13*%
X143000000Y-109500000D03*
%TO.P,J1,16,Pin_16*%
%TO.N,GPIO14*%
X143000000Y-111500000D03*
%TO.P,J1,17,Pin_17*%
%TO.N,GPIO15*%
X143000000Y-113500000D03*
%TO.P,J1,18,Pin_18*%
%TO.N,GND*%
X143000000Y-115500000D03*
%TD*%
D10*
%TO.P,C6,1*%
%TO.N,+1V1*%
X154750000Y-91000000D03*
%TO.P,C6,2*%
%TO.N,GND*%
X154750000Y-89450000D03*
%TD*%
D14*
%TO.P,R4,1*%
%TO.N,+3.3V*%
X150250000Y-117220000D03*
%TO.P,R4,2*%
%TO.N,Net-(U1-QSPI_SS)*%
X150250000Y-109600000D03*
%TD*%
D12*
%TO.P,C12,1*%
%TO.N,+3.3V*%
X160800000Y-109950000D03*
%TO.P,C12,2*%
%TO.N,GND*%
X162350000Y-109950000D03*
%TD*%
D27*
%TO.N,Net-(J2-Pin_2)*%
X146700000Y-88600000D03*
%TO.N,+1V1*%
X154750000Y-91000000D03*
X153000000Y-91000000D03*
%TO.N,GND*%
X152275000Y-93100000D03*
%TO.N,+3.3V*%
X160575000Y-113490000D03*
%TO.N,Net-(U1-QSPI_SCLK)*%
X152719706Y-96971177D03*
%TO.N,Net-(U1-QSPI_SD0)*%
X151514931Y-96800000D03*
%TO.N,Net-(U1-QSPI_SD2)*%
X150794269Y-97200000D03*
%TO.N,Net-(U1-QSPI_SD1)*%
X150041234Y-96929925D03*
%TO.N,Net-(U1-QSPI_SS)*%
X150649246Y-98625338D03*
X153400000Y-113490000D03*
%TO.N,Net-(U1-QSPI_SD1)*%
X153400000Y-114760000D03*
%TO.N,Net-(U1-QSPI_SD2)*%
X153400000Y-116030000D03*
%TO.N,Net-(U1-QSPI_SD0)*%
X160575000Y-117300000D03*
%TO.N,Net-(U1-QSPI_SCLK)*%
X160575000Y-116030000D03*
%TO.N,Net-(U1-QSPI_SD3)*%
X160575000Y-114760000D03*
X153491362Y-96760109D03*
%TO.N,+3.3V*%
X156400000Y-103062500D03*
X151500000Y-99800000D03*
%TO.N,+1V1*%
X154750000Y-96350000D03*
X154550000Y-108000000D03*
%TO.N,SWCLK*%
X156925735Y-108874265D03*
%TO.N,GPIO17*%
X157900000Y-106400000D03*
%TO.N,GPIO27_ADC1*%
X159012530Y-99212530D03*
%TO.N,GPIO28_ADC3*%
X157700000Y-98722638D03*
%TO.N,GPIO28_ADC2*%
X156573008Y-100260258D03*
%TO.N,GPIO26_ADC0*%
X156573008Y-101060258D03*
%TO.N,GPIO25*%
X161450410Y-99015450D03*
%TO.N,GPIO20*%
X159181250Y-103662500D03*
%TO.N,+3.3V*%
X160800000Y-111700000D03*
X160800000Y-109950000D03*
X160800000Y-108200000D03*
X160800000Y-106450000D03*
X160800000Y-104700000D03*
X160800000Y-102950000D03*
X160800000Y-101200000D03*
%TO.N,Net-(U1-XIN)*%
X148600000Y-97000000D03*
X150300000Y-107400000D03*
%TO.N,GPIO15*%
X149200000Y-106465500D03*
%TO.N,GPIO2*%
X148754604Y-100103133D03*
%TO.N,GPIO1*%
X149100000Y-98785996D03*
%TO.N,GPIO0*%
X149514723Y-98101887D03*
%TO.N,GPIO3*%
X148500000Y-100862500D03*
%TO.N,GPIO4*%
X146884735Y-101248806D03*
%TO.N,GPIO5*%
X146200000Y-101662500D03*
%TO.N,+3.3V*%
X148250000Y-90900000D03*
%TO.N,GND*%
X157000000Y-81795000D03*
X150500000Y-81795000D03*
X147250000Y-80700000D03*
X145500000Y-80700000D03*
X150550000Y-84600000D03*
X154750000Y-89450000D03*
X153000000Y-89450000D03*
X148600000Y-93700000D03*
X146600000Y-97000000D03*
X153950000Y-102062500D03*
X153400000Y-117300000D03*
X154650000Y-111700000D03*
X162375000Y-111700000D03*
X162375000Y-109950000D03*
X162375000Y-108200000D03*
X162375000Y-106450000D03*
X162400000Y-104700000D03*
X162350000Y-102950000D03*
X162350000Y-101200000D03*
X152250000Y-95900000D03*
X154750000Y-94800000D03*
X160300000Y-98000000D03*
%TO.N,Net-(U1-USB_DP)*%
X154948071Y-97810758D03*
%TO.N,Net-(U1-USB_DM)*%
X155360341Y-99445815D03*
%TD*%
D28*
%TO.N,Net-(U1-QSPI_SD3)*%
X153350000Y-96901470D02*
X153350000Y-98625000D01*
X153491362Y-96760109D02*
X153350000Y-96901470D01*
%TO.N,Net-(U1-QSPI_SCLK)*%
X152950000Y-97201471D02*
X152719706Y-96971177D01*
X152950000Y-98625000D02*
X152950000Y-97201471D01*
%TO.N,Net-(U1-QSPI_SD0)*%
X152550000Y-97650000D02*
X152550000Y-98625000D01*
X151700000Y-96800000D02*
X152550000Y-97650000D01*
X151514931Y-96800000D02*
X151700000Y-96800000D01*
%TO.N,Net-(U1-QSPI_SD2)*%
X152150000Y-97850000D02*
X152150000Y-98625000D01*
X150994269Y-97400000D02*
X151700000Y-97400000D01*
X150794269Y-97200000D02*
X150994269Y-97400000D01*
X151700000Y-97400000D02*
X152150000Y-97850000D01*
%TO.N,Net-(U1-QSPI_SD1)*%
X151750000Y-98050000D02*
X151750000Y-98625000D01*
X151500000Y-97800000D02*
X151750000Y-98050000D01*
X150155654Y-97455654D02*
X150500000Y-97800000D01*
X150500000Y-97800000D02*
X151500000Y-97800000D01*
X150041234Y-96929925D02*
X150155654Y-97044345D01*
X150155654Y-97044345D02*
X150155654Y-97455654D01*
%TO.N,Net-(U1-QSPI_SS)*%
X150649584Y-98625000D02*
X150649246Y-98625338D01*
X151350000Y-98625000D02*
X150649584Y-98625000D01*
%TO.N,Net-(P1-D+)*%
X154000000Y-83011370D02*
X154000000Y-81795000D01*
X158388630Y-87400000D02*
X154000000Y-83011370D01*
X159520000Y-87400000D02*
X158388630Y-87400000D01*
X160500000Y-88380000D02*
X159520000Y-87400000D01*
%TO.N,Net-(P1-D-)*%
X153500000Y-84630000D02*
X157250000Y-88380000D01*
X153500000Y-81795000D02*
X153500000Y-84630000D01*
%TO.N,+3.3V*%
X148250000Y-84600000D02*
X148250000Y-90900000D01*
X156000000Y-103462500D02*
X156400000Y-103062500D01*
X155100000Y-104600000D02*
X156000000Y-103700000D01*
X156000000Y-103700000D02*
X156000000Y-103462500D01*
X154500000Y-104600000D02*
X155100000Y-104600000D01*
X154150000Y-104950000D02*
X154500000Y-104600000D01*
X154150000Y-105500000D02*
X154150000Y-104950000D01*
X156400000Y-103062500D02*
X157387500Y-103062500D01*
X154150000Y-99250000D02*
X154150000Y-98625000D01*
X153600000Y-99800000D02*
X154150000Y-99250000D01*
X151500000Y-99800000D02*
X153600000Y-99800000D01*
X151162500Y-99462500D02*
X151500000Y-99800000D01*
%TO.N,+1V1*%
X154550000Y-108000000D02*
X154550000Y-105500000D01*
X155750000Y-97350000D02*
X155750000Y-98625000D01*
X154750000Y-96350000D02*
X155750000Y-97350000D01*
X153750000Y-97350000D02*
X154750000Y-96350000D01*
X153750000Y-98625000D02*
X153750000Y-97350000D01*
%TO.N,+3.3V*%
X150512500Y-99462500D02*
X150512500Y-99461500D01*
X151500000Y-102800000D02*
X151500000Y-99800000D01*
X151162500Y-99462500D02*
X150512500Y-99462500D01*
X151237500Y-103062500D02*
X151500000Y-102800000D01*
X150512500Y-103062500D02*
X151237500Y-103062500D01*
%TO.N,SWCLK*%
X154950000Y-106650000D02*
X154950000Y-105500000D01*
X156925735Y-108874265D02*
X156775735Y-108724265D01*
X156775735Y-108724265D02*
X156775735Y-108475735D01*
X156775735Y-108475735D02*
X154950000Y-106650000D01*
%TO.N,SWD*%
X163750000Y-112500000D02*
X164750000Y-113500000D01*
X159700000Y-111900000D02*
X160300000Y-112500000D01*
X159700000Y-110800000D02*
X159700000Y-111900000D01*
X160300000Y-112500000D02*
X163750000Y-112500000D01*
X155350000Y-106450000D02*
X159700000Y-110800000D01*
X155350000Y-105500000D02*
X155350000Y-106450000D01*
%TO.N,RUN*%
X158674000Y-109174000D02*
X164424000Y-109174000D01*
X155750000Y-106250000D02*
X158674000Y-109174000D01*
X155750000Y-105500000D02*
X155750000Y-106250000D01*
X164424000Y-109174000D02*
X164750000Y-109500000D01*
%TO.N,GPIO16*%
X164674000Y-107424000D02*
X164750000Y-107500000D01*
X157524000Y-107424000D02*
X164674000Y-107424000D01*
X156150000Y-106050000D02*
X157524000Y-107424000D01*
X156150000Y-105500000D02*
X156150000Y-106050000D01*
%TO.N,GPIO17*%
X157000000Y-105500000D02*
X157900000Y-106400000D01*
X156550000Y-105500000D02*
X157000000Y-105500000D01*
%TO.N,GPIO28_ADC3*%
X157937500Y-99862500D02*
X157387500Y-99862500D01*
X158200000Y-99600000D02*
X157937500Y-99862500D01*
X158200000Y-99222638D02*
X158200000Y-99600000D01*
X157700000Y-98722638D02*
X158200000Y-99222638D01*
%TO.N,GPIO28_ADC2*%
X156575250Y-100262500D02*
X156573008Y-100260258D01*
X157387500Y-100262500D02*
X156575250Y-100262500D01*
%TO.N,GPIO26_ADC0*%
X156575250Y-101062500D02*
X156573008Y-101060258D01*
X157387500Y-101062500D02*
X156575250Y-101062500D01*
%TO.N,GPIO25*%
X161251410Y-99214450D02*
X161450410Y-99015450D01*
X160700000Y-99214450D02*
X161251410Y-99214450D01*
X159859140Y-99214450D02*
X160700000Y-99214450D01*
X158798000Y-100867800D02*
X158798000Y-100275590D01*
X158798000Y-100275590D02*
X159859140Y-99214450D01*
X158203300Y-101462500D02*
X158798000Y-100867800D01*
X157387500Y-101462500D02*
X158203300Y-101462500D01*
%TO.N,GPIO24*%
X161850350Y-99615450D02*
X162098000Y-99367800D01*
X159199000Y-100441690D02*
X160025240Y-99615450D01*
X160025240Y-99615450D02*
X161850350Y-99615450D01*
X162098000Y-99367800D02*
X162098000Y-94152000D01*
X159199000Y-101033900D02*
X159199000Y-100441690D01*
X158370400Y-101862500D02*
X159199000Y-101033900D01*
X157387500Y-101862500D02*
X158370400Y-101862500D01*
X162098000Y-94152000D02*
X164750000Y-91500000D01*
%TO.N,GPIO23*%
X162499000Y-95751000D02*
X164750000Y-93500000D01*
X162499000Y-99533900D02*
X162499000Y-95751000D01*
X159600000Y-100607790D02*
X160191340Y-100016450D01*
X162016450Y-100016450D02*
X162499000Y-99533900D01*
X159600000Y-101200000D02*
X159600000Y-100607790D01*
X158537500Y-102262500D02*
X159600000Y-101200000D01*
X160191340Y-100016450D02*
X162016450Y-100016450D01*
X157387500Y-102262500D02*
X158537500Y-102262500D01*
%TO.N,GPIO22*%
X162900000Y-99700000D02*
X162900000Y-97350000D01*
X162176000Y-100424000D02*
X162900000Y-99700000D01*
X160350890Y-100424000D02*
X162176000Y-100424000D01*
X160049000Y-100725890D02*
X160350890Y-100424000D01*
X162900000Y-97350000D02*
X164750000Y-95500000D01*
X160049000Y-101333900D02*
X160049000Y-100725890D01*
X158720400Y-102662500D02*
X160049000Y-101333900D01*
X157387500Y-102662500D02*
X158720400Y-102662500D01*
%TO.N,GPIO21*%
X163300000Y-98950000D02*
X164750000Y-97500000D01*
X162700000Y-102100000D02*
X163300000Y-101500000D01*
X163300000Y-101500000D02*
X163300000Y-98950000D01*
X159850000Y-102100000D02*
X162700000Y-102100000D01*
X158487500Y-103462500D02*
X159850000Y-102100000D01*
X157387500Y-103462500D02*
X158487500Y-103462500D01*
%TO.N,GPIO20*%
X158981250Y-103862500D02*
X157387500Y-103862500D01*
X159181250Y-103662500D02*
X158981250Y-103862500D01*
%TO.N,GPIO19*%
X164750000Y-101774000D02*
X164750000Y-101500000D01*
X162600000Y-103924000D02*
X164750000Y-101774000D01*
X160350890Y-103924000D02*
X162600000Y-103924000D01*
X160012390Y-104262500D02*
X160350890Y-103924000D01*
X157387500Y-104262500D02*
X160012390Y-104262500D01*
%TO.N,GPIO18*%
X162775110Y-105500000D02*
X164750000Y-103525110D01*
X164750000Y-103525110D02*
X164750000Y-103500000D01*
X158225000Y-105500000D02*
X162775110Y-105500000D01*
X157387500Y-104662500D02*
X158225000Y-105500000D01*
%TO.N,GPIO0*%
X149700000Y-99600000D02*
X149962500Y-99862500D01*
X149514723Y-98114723D02*
X149700000Y-98300000D01*
X149700000Y-98300000D02*
X149700000Y-99600000D01*
X149514723Y-98101887D02*
X149514723Y-98114723D01*
X149962500Y-99862500D02*
X150512500Y-99862500D01*
%TO.N,GPIO15*%
X152550000Y-106182900D02*
X152550000Y-105500000D01*
X152551000Y-106516100D02*
X152551000Y-106183900D01*
X150867800Y-107102000D02*
X151965100Y-107102000D01*
X150231300Y-106465500D02*
X150867800Y-107102000D01*
X152551000Y-106183900D02*
X152550000Y-106182900D01*
X149200000Y-106465500D02*
X150231300Y-106465500D01*
X151965100Y-107102000D02*
X152551000Y-106516100D01*
%TO.N,Net-(U1-XIN)*%
X150403000Y-107503000D02*
X150300000Y-107400000D01*
X152397000Y-107503000D02*
X150403000Y-107503000D01*
X153300000Y-106600000D02*
X152397000Y-107503000D01*
%TO.N,Net-(U1-XOUT)*%
X147680000Y-108000000D02*
X147000000Y-107320000D01*
X153750000Y-106750000D02*
X152500000Y-108000000D01*
X152500000Y-108000000D02*
X147680000Y-108000000D01*
X153750000Y-105500000D02*
X153750000Y-106750000D01*
%TO.N,Net-(U1-XIN)*%
X153350000Y-106550000D02*
X153300000Y-106600000D01*
X153350000Y-105500000D02*
X153350000Y-106550000D01*
%TO.N,GND*%
X153950000Y-103950000D02*
X153950000Y-102062500D01*
X152950000Y-105500000D02*
X152950000Y-104950000D01*
X152950000Y-104950000D02*
X153950000Y-103950000D01*
%TO.N,GPIO14*%
X144801000Y-109699000D02*
X143000000Y-111500000D01*
X150198400Y-105865500D02*
X145801600Y-105865500D01*
X151033900Y-106701000D02*
X150198400Y-105865500D01*
X144801000Y-106866100D02*
X144801000Y-109699000D01*
X151400000Y-106700000D02*
X151399000Y-106701000D01*
X151399000Y-106701000D02*
X151033900Y-106701000D01*
X151800000Y-106700000D02*
X151400000Y-106700000D01*
X152150000Y-105500000D02*
X152150000Y-106350000D01*
X152150000Y-106350000D02*
X151800000Y-106700000D01*
X145801600Y-105865500D02*
X144801000Y-106866100D01*
%TO.N,GPIO13*%
X145635500Y-105464500D02*
X144400000Y-106700000D01*
X144400000Y-108100000D02*
X143000000Y-109500000D01*
X150364500Y-105464500D02*
X145635500Y-105464500D01*
X151200000Y-106300000D02*
X150364500Y-105464500D01*
X151600000Y-106300000D02*
X151200000Y-106300000D01*
X151750000Y-106150000D02*
X151600000Y-106300000D01*
X144400000Y-106700000D02*
X144400000Y-108100000D01*
X151750000Y-105500000D02*
X151750000Y-106150000D01*
%TO.N,GPIO12*%
X145436500Y-105063500D02*
X143000000Y-107500000D01*
X150913500Y-105063500D02*
X145436500Y-105063500D01*
X151350000Y-105500000D02*
X150913500Y-105063500D01*
%TO.N,GPIO2*%
X148754604Y-100103133D02*
X149313971Y-100662500D01*
X149313971Y-100662500D02*
X150512500Y-100662500D01*
%TO.N,GPIO1*%
X149762500Y-100262500D02*
X150512500Y-100262500D01*
X149100000Y-98785996D02*
X149100000Y-99600000D01*
X149100000Y-99600000D02*
X149762500Y-100262500D01*
%TO.N,GPIO3*%
X149100000Y-101062500D02*
X150512500Y-101062500D01*
X148900000Y-100862500D02*
X149100000Y-101062500D01*
X148500000Y-100862500D02*
X148900000Y-100862500D01*
%TO.N,GPIO4*%
X147098429Y-101462500D02*
X146884735Y-101248806D01*
X150512500Y-101462500D02*
X147098429Y-101462500D01*
%TO.N,GPIO5*%
X146400000Y-101862500D02*
X146200000Y-101662500D01*
X150512500Y-101862500D02*
X146400000Y-101862500D01*
%TO.N,GPIO6*%
X145562500Y-102262500D02*
X150512500Y-102262500D01*
X145202000Y-101902000D02*
X145562500Y-102262500D01*
X145202000Y-97702000D02*
X145202000Y-101902000D01*
X143000000Y-95500000D02*
X145202000Y-97702000D01*
%TO.N,Net-(C15-Pad1)*%
X147600000Y-99100000D02*
X147000000Y-99700000D01*
X146600000Y-95000000D02*
X147600000Y-96000000D01*
X147600000Y-96000000D02*
X147600000Y-99100000D01*
X146600000Y-93700000D02*
X146600000Y-95000000D01*
%TO.N,GPIO7*%
X144801000Y-99301000D02*
X143000000Y-97500000D01*
X144801000Y-102133900D02*
X144801000Y-99301000D01*
X150512500Y-102662500D02*
X145329600Y-102662500D01*
X145329600Y-102662500D02*
X144801000Y-102133900D01*
%TO.N,GPIO8*%
X144400000Y-102300000D02*
X144400000Y-100900000D01*
X144400000Y-100900000D02*
X143000000Y-99500000D01*
X150512500Y-103462500D02*
X145562500Y-103462500D01*
X145562500Y-103462500D02*
X144400000Y-102300000D01*
%TO.N,GPIO9*%
X150512500Y-103862500D02*
X145362500Y-103862500D01*
X145362500Y-103862500D02*
X143000000Y-101500000D01*
%TO.N,GPIO10*%
X143762500Y-104262500D02*
X143000000Y-103500000D01*
X150512500Y-104262500D02*
X143762500Y-104262500D01*
%TO.N,GPIO11*%
X143837500Y-104662500D02*
X143000000Y-105500000D01*
X150512500Y-104662500D02*
X143837500Y-104662500D01*
%TO.N,Net-(U1-XIN)*%
X150700000Y-95900000D02*
X149700000Y-95900000D01*
X149700000Y-95900000D02*
X148600000Y-97000000D01*
%TO.N,Net-(C15-Pad1)*%
X147701000Y-94801000D02*
X146600000Y-93700000D01*
X149499000Y-94801000D02*
X147701000Y-94801000D01*
X150725000Y-93575000D02*
X149499000Y-94801000D01*
X150725000Y-93100000D02*
X150725000Y-93575000D01*
%TO.N,Net-(U2-VI)*%
X146251000Y-81499000D02*
X145500000Y-82250000D01*
X147724110Y-81499000D02*
X146251000Y-81499000D01*
X151101000Y-82821000D02*
X149046110Y-82821000D01*
X151300000Y-82622000D02*
X151101000Y-82821000D01*
X151300000Y-81795000D02*
X151300000Y-82622000D01*
X149046110Y-82821000D02*
X147724110Y-81499000D01*
X151549000Y-80769000D02*
X151300000Y-81018000D01*
X151300000Y-81018000D02*
X151300000Y-81795000D01*
X156200000Y-80870000D02*
X156099000Y-80769000D01*
X156099000Y-80769000D02*
X151549000Y-80769000D01*
X156200000Y-81795000D02*
X156200000Y-80870000D01*
X145500000Y-82250000D02*
X145500000Y-84150000D01*
X145500000Y-84150000D02*
X145950000Y-84600000D01*
%TO.N,+3.3V*%
X147250000Y-82250000D02*
X147250000Y-83600000D01*
X147250000Y-83600000D02*
X148250000Y-84600000D01*
X156200000Y-116100000D02*
X156200000Y-111700000D01*
X154300000Y-118000000D02*
X156200000Y-116100000D01*
X151030000Y-118000000D02*
X154300000Y-118000000D01*
X150250000Y-117220000D02*
X151030000Y-118000000D01*
X157990000Y-113490000D02*
X156200000Y-111700000D01*
X160575000Y-113490000D02*
X157990000Y-113490000D01*
%TO.N,Net-(U1-QSPI_SS)*%
X153400000Y-112750000D02*
X150250000Y-109600000D01*
X153400000Y-113490000D02*
X153400000Y-112750000D01*
X147010000Y-109600000D02*
X147000000Y-109590000D01*
X150250000Y-109600000D02*
X147010000Y-109600000D01*
%TO.N,+3.3V*%
X156150000Y-99506099D02*
X156150000Y-98625000D01*
X155609284Y-100046815D02*
X156150000Y-99506099D01*
X154550000Y-99485417D02*
X155111398Y-100046815D01*
X154550000Y-98625000D02*
X154550000Y-99485417D01*
X155111398Y-100046815D02*
X155609284Y-100046815D01*
X154150000Y-98625000D02*
X154550000Y-98625000D01*
X156550000Y-98625000D02*
X156150000Y-98625000D01*
X157387500Y-99462500D02*
X156550000Y-98625000D01*
%TO.N,Net-(U1-USB_DP)*%
X154950000Y-97812687D02*
X154948071Y-97810758D01*
X154950000Y-98625000D02*
X154950000Y-97812687D01*
%TO.N,Net-(U1-USB_DM)*%
X155350000Y-99435474D02*
X155360341Y-99445815D01*
X155350000Y-98625000D02*
X155350000Y-99435474D01*
%TO.N,+3.3V*%
X156250000Y-97750000D02*
X156150000Y-97850000D01*
X157500000Y-97750000D02*
X156250000Y-97750000D01*
X157750000Y-98000000D02*
X157500000Y-97750000D01*
X158750000Y-98000000D02*
X157750000Y-98000000D01*
X156150000Y-97850000D02*
X156150000Y-98625000D01*
%TO.N,GPIO27_ADC1*%
X157387500Y-100662500D02*
X157975000Y-100662500D01*
X157975000Y-100662500D02*
X158397000Y-100240500D01*
X158397000Y-100240500D02*
X158397000Y-100109490D01*
X159012530Y-99493960D02*
X159012530Y-99212530D01*
X158397000Y-100109490D02*
X159012530Y-99493960D01*
%TO.N,+3.3V*%
X155972008Y-100011315D02*
X156520823Y-99462500D01*
X156520823Y-99462500D02*
X157387500Y-99462500D01*
X155972008Y-102634508D02*
X155972008Y-100011315D01*
X156400000Y-103062500D02*
X155972008Y-102634508D01*
%TD*%
M02*
