%TF.GenerationSoftware,KiCad,Pcbnew,9.0.6*%
%TF.CreationDate,2026-04-09T19:16:37+02:00*%
%TF.ProjectId,HackClubNano,4861636b-436c-4756-924e-616e6f2e6b69,rev?*%
%TF.SameCoordinates,Original*%
%TF.FileFunction,Copper,L4,Bot*%
%TF.FilePolarity,Positive*%
%FSLAX46Y46*%
G04 Gerber Fmt 4.6, Leading zero omitted, Abs format (unit mm)*
G04 Created by KiCad (PCBNEW 9.0.6) date 2026-04-09 19:16:37*
%MOMM*%
%LPD*%
G01*
G04 APERTURE LIST*
%TA.AperFunction,ComponentPad*%
%ADD10C,1.600000*%
%TD*%
%TA.AperFunction,HeatsinkPad*%
%ADD11O,1.000000X2.100000*%
%TD*%
%TA.AperFunction,HeatsinkPad*%
%ADD12O,1.000000X1.600000*%
%TD*%
%TA.AperFunction,ComponentPad*%
%ADD13R,1.350000X1.350000*%
%TD*%
%TA.AperFunction,ComponentPad*%
%ADD14C,1.350000*%
%TD*%
%TA.AperFunction,ViaPad*%
%ADD15C,0.600000*%
%TD*%
%TA.AperFunction,Conductor*%
%ADD16C,0.200000*%
%TD*%
G04 APERTURE END LIST*
D10*
%TO.P,R3,1*%
%TO.N,Net-(J2-Pin_2)*%
X147000000Y-117210000D03*
%TO.P,R3,2*%
%TO.N,Net-(U1-QSPI_SS)*%
X147000000Y-109590000D03*
%TD*%
%TO.P,R1,1*%
%TO.N,Net-(P1-D-)*%
X157250000Y-88380000D03*
%TO.P,R1,2*%
%TO.N,Net-(U1-USB_DP)*%
X157250000Y-96000000D03*
%TD*%
D11*
%TO.P,P1,S1,SHIELD*%
%TO.N,GND*%
X158070000Y-80880000D03*
D12*
X158070000Y-76700000D03*
D11*
X149430000Y-80880000D03*
D12*
X149430000Y-76700000D03*
%TD*%
D10*
%TO.P,R2,1*%
%TO.N,Net-(P1-D+)*%
X160500000Y-88380000D03*
%TO.P,R2,2*%
%TO.N,Net-(U1-USB_DM)*%
X160500000Y-96000000D03*
%TD*%
D13*
%TO.P,J2,1,Pin_1*%
%TO.N,GND*%
X161000000Y-81500000D03*
D14*
%TO.P,J2,2,Pin_2*%
%TO.N,Net-(J2-Pin_2)*%
X161000000Y-83500000D03*
%TD*%
D10*
%TO.P,R5,1*%
%TO.N,Net-(C15-Pad1)*%
X147000000Y-99700000D03*
%TO.P,R5,2*%
%TO.N,Net-(U1-XOUT)*%
X147000000Y-107320000D03*
%TD*%
D13*
%TO.P,J3,1,Pin_1*%
%TO.N,GPIO28_ADC3*%
X164750000Y-81500000D03*
D14*
%TO.P,J3,2,Pin_2*%
%TO.N,GPIO28_ADC2*%
X164750000Y-83500000D03*
%TO.P,J3,3,Pin_3*%
%TO.N,GPIO27_ADC1*%
X164750000Y-85500000D03*
%TO.P,J3,4,Pin_4*%
%TO.N,GPIO26_ADC0*%
X164750000Y-87500000D03*
%TO.P,J3,5,Pin_5*%
%TO.N,GPIO25*%
X164750000Y-89500000D03*
%TO.P,J3,6,Pin_6*%
%TO.N,GPIO24*%
X164750000Y-91500000D03*
%TO.P,J3,7,Pin_7*%
%TO.N,GPIO23*%
X164750000Y-93500000D03*
%TO.P,J3,8,Pin_8*%
%TO.N,GPIO22*%
X164750000Y-95500000D03*
%TO.P,J3,9,Pin_9*%
%TO.N,GPIO21*%
X164750000Y-97500000D03*
%TO.P,J3,10,Pin_10*%
%TO.N,GPIO20*%
X164750000Y-99500000D03*
%TO.P,J3,11,Pin_11*%
%TO.N,GPIO19*%
X164750000Y-101500000D03*
%TO.P,J3,12,Pin_12*%
%TO.N,GPIO18*%
X164750000Y-103500000D03*
%TO.P,J3,13,Pin_13*%
%TO.N,GPIO17*%
X164750000Y-105500000D03*
%TO.P,J3,14,Pin_14*%
%TO.N,GPIO16*%
X164750000Y-107500000D03*
%TO.P,J3,15,Pin_15*%
%TO.N,RUN*%
X164750000Y-109500000D03*
%TO.P,J3,16,Pin_16*%
%TO.N,SWCLK*%
X164750000Y-111500000D03*
%TO.P,J3,17,Pin_17*%
%TO.N,SWD*%
X164750000Y-113500000D03*
%TO.P,J3,18,Pin_18*%
%TO.N,GND*%
X164750000Y-115500000D03*
%TD*%
D13*
%TO.P,J1,1,Pin_1*%
%TO.N,+3.3V*%
X143000000Y-81500000D03*
D14*
%TO.P,J1,2,Pin_2*%
%TO.N,GPIO0*%
X143000000Y-83500000D03*
%TO.P,J1,3,Pin_3*%
%TO.N,GPIO1*%
X143000000Y-85500000D03*
%TO.P,J1,4,Pin_4*%
%TO.N,GPIO2*%
X143000000Y-87500000D03*
%TO.P,J1,5,Pin_5*%
%TO.N,GPIO3*%
X143000000Y-89500000D03*
%TO.P,J1,6,Pin_6*%
%TO.N,GPIO4*%
X143000000Y-91500000D03*
%TO.P,J1,7,Pin_7*%
%TO.N,GPIO5*%
X143000000Y-93500000D03*
%TO.P,J1,8,Pin_8*%
%TO.N,GPIO6*%
X143000000Y-95500000D03*
%TO.P,J1,9,Pin_9*%
%TO.N,GPIO7*%
X143000000Y-97500000D03*
%TO.P,J1,10,Pin_10*%
%TO.N,GPIO8*%
X143000000Y-99500000D03*
%TO.P,J1,11,Pin_11*%
%TO.N,GPIO9*%
X143000000Y-101500000D03*
%TO.P,J1,12,Pin_12*%
%TO.N,GPIO10*%
X143000000Y-103500000D03*
%TO.P,J1,13,Pin_13*%
%TO.N,GPIO11*%
X143000000Y-105500000D03*
%TO.P,J1,14,Pin_14*%
%TO.N,GPIO12*%
X143000000Y-107500000D03*
%TO.P,J1,15,Pin_15*%
%TO.N,GPIO13*%
X143000000Y-109500000D03*
%TO.P,J1,16,Pin_16*%
%TO.N,GPIO14*%
X143000000Y-111500000D03*
%TO.P,J1,17,Pin_17*%
%TO.N,GPIO15*%
X143000000Y-113500000D03*
%TO.P,J1,18,Pin_18*%
%TO.N,GND*%
X143000000Y-115500000D03*
%TD*%
D10*
%TO.P,R4,1*%
%TO.N,+3.3V*%
X150250000Y-117220000D03*
%TO.P,R4,2*%
%TO.N,Net-(U1-QSPI_SS)*%
X150250000Y-109600000D03*
%TD*%
D15*
%TO.N,Net-(J2-Pin_2)*%
X146700000Y-88600000D03*
%TO.N,+1V1*%
X154750000Y-91000000D03*
X153000000Y-91000000D03*
%TO.N,GND*%
X152275000Y-93100000D03*
%TO.N,+3.3V*%
X160575000Y-113490000D03*
%TO.N,Net-(U1-QSPI_SCLK)*%
X152719706Y-96971177D03*
%TO.N,Net-(U1-QSPI_SD0)*%
X151514931Y-96800000D03*
%TO.N,Net-(U1-QSPI_SD2)*%
X150794269Y-97200000D03*
%TO.N,Net-(U1-QSPI_SD1)*%
X150041234Y-96929925D03*
%TO.N,Net-(U1-QSPI_SS)*%
X150649246Y-98625338D03*
X153400000Y-113490000D03*
%TO.N,Net-(U1-QSPI_SD1)*%
X153400000Y-114760000D03*
%TO.N,Net-(U1-QSPI_SD2)*%
X153400000Y-116030000D03*
%TO.N,Net-(U1-QSPI_SD0)*%
X160575000Y-117300000D03*
%TO.N,Net-(U1-QSPI_SCLK)*%
X160575000Y-116030000D03*
%TO.N,Net-(U1-QSPI_SD3)*%
X160575000Y-114760000D03*
X153491362Y-96760109D03*
%TO.N,+3.3V*%
X156400000Y-103062500D03*
X151500000Y-99800000D03*
%TO.N,+1V1*%
X154750000Y-96350000D03*
X154550000Y-108000000D03*
%TO.N,SWCLK*%
X156925735Y-108874265D03*
%TO.N,GPIO17*%
X157900000Y-106400000D03*
%TO.N,GPIO27_ADC1*%
X159012530Y-99212530D03*
%TO.N,GPIO28_ADC3*%
X157700000Y-98722638D03*
%TO.N,GPIO28_ADC2*%
X156573008Y-100260258D03*
%TO.N,GPIO26_ADC0*%
X156573008Y-101060258D03*
%TO.N,GPIO25*%
X161450410Y-99015450D03*
%TO.N,GPIO20*%
X159181250Y-103662500D03*
%TO.N,+3.3V*%
X160800000Y-111700000D03*
X160800000Y-109950000D03*
X160800000Y-108200000D03*
X160800000Y-106450000D03*
X160800000Y-104700000D03*
X160800000Y-102950000D03*
X160800000Y-101200000D03*
%TO.N,Net-(U1-XIN)*%
X148600000Y-97000000D03*
X150300000Y-107400000D03*
%TO.N,GPIO15*%
X149200000Y-106465500D03*
%TO.N,GPIO2*%
X148754604Y-100103133D03*
%TO.N,GPIO1*%
X149100000Y-98785996D03*
%TO.N,GPIO0*%
X149514723Y-98101887D03*
%TO.N,GPIO3*%
X148500000Y-100862500D03*
%TO.N,GPIO4*%
X146884735Y-101248806D03*
%TO.N,GPIO5*%
X146200000Y-101662500D03*
%TO.N,+3.3V*%
X148250000Y-90900000D03*
%TO.N,GND*%
X157000000Y-81795000D03*
X150500000Y-81795000D03*
X147250000Y-80700000D03*
X145500000Y-80700000D03*
X150550000Y-84600000D03*
X154750000Y-89450000D03*
X153000000Y-89450000D03*
X148600000Y-93700000D03*
X146600000Y-97000000D03*
X153950000Y-102062500D03*
X153400000Y-117300000D03*
X154650000Y-111700000D03*
X162375000Y-111700000D03*
X162375000Y-109950000D03*
X162375000Y-108200000D03*
X162375000Y-106450000D03*
X162400000Y-104700000D03*
X162350000Y-102950000D03*
X162350000Y-101200000D03*
X152250000Y-95900000D03*
X154750000Y-94800000D03*
X160300000Y-98000000D03*
%TO.N,Net-(U1-USB_DP)*%
X154948071Y-97810758D03*
%TO.N,Net-(U1-USB_DM)*%
X155360341Y-99445815D03*
%TD*%
D16*
%TO.N,Net-(J2-Pin_2)*%
X150099000Y-85201000D02*
X146700000Y-88600000D01*
X159299000Y-85201000D02*
X150099000Y-85201000D01*
X161000000Y-83500000D02*
X159299000Y-85201000D01*
%TO.N,Net-(U1-QSPI_SD0)*%
X159499000Y-116224000D02*
X160575000Y-117300000D01*
X152318706Y-107752849D02*
X159499000Y-114933143D01*
X152318706Y-97603775D02*
X152318706Y-107752849D01*
X151514931Y-96800000D02*
X152318706Y-97603775D01*
X159499000Y-114933143D02*
X159499000Y-116224000D01*
%TO.N,Net-(U1-QSPI_SCLK)*%
X159900000Y-115355000D02*
X160575000Y-116030000D01*
X152719706Y-107586749D02*
X159900000Y-114767043D01*
X152719706Y-96971177D02*
X152719706Y-107586749D01*
X159900000Y-114767043D02*
X159900000Y-115355000D01*
%TO.N,Net-(U1-QSPI_SD3)*%
X160460057Y-114760000D02*
X160575000Y-114760000D01*
X153349000Y-96902470D02*
X153349000Y-107648943D01*
X153491362Y-96760109D02*
X153349000Y-96902470D01*
X153349000Y-107648943D02*
X160460057Y-114760000D01*
%TO.N,+1V1*%
X154347071Y-96752929D02*
X154750000Y-96350000D01*
X154347071Y-98059701D02*
X154347071Y-96752929D01*
X154550000Y-108000000D02*
X154550000Y-98262630D01*
X154550000Y-98262630D02*
X154347071Y-98059701D01*
%TO.N,SWCLK*%
X164349000Y-111099000D02*
X164750000Y-111500000D01*
X159150470Y-111099000D02*
X164349000Y-111099000D01*
X156925735Y-108874265D02*
X159150470Y-111099000D01*
%TO.N,GPIO17*%
X157900000Y-106400000D02*
X158800000Y-105500000D01*
X158800000Y-105500000D02*
X164750000Y-105500000D01*
%TO.N,GPIO25*%
X163774000Y-90476000D02*
X164750000Y-89500000D01*
X163774000Y-96691860D02*
X163774000Y-90476000D01*
X161450410Y-99015450D02*
X163774000Y-96691860D01*
%TO.N,GPIO20*%
X163774000Y-100476000D02*
X164750000Y-99500000D01*
X163774000Y-102375943D02*
X163774000Y-100476000D01*
X162487443Y-103662500D02*
X163774000Y-102375943D01*
X159181250Y-103662500D02*
X162487443Y-103662500D01*
%TO.N,Net-(U1-XIN)*%
X149800000Y-106900000D02*
X150300000Y-107400000D01*
X149800000Y-98666553D02*
X149800000Y-106900000D01*
X150115723Y-97852944D02*
X150115723Y-98350830D01*
X148600000Y-97000000D02*
X149262779Y-97000000D01*
X149262779Y-97000000D02*
X150115723Y-97852944D01*
X150115723Y-98350830D02*
X149800000Y-98666553D01*
%TO.N,GPIO0*%
X146003000Y-86503000D02*
X143000000Y-83500000D01*
X146003000Y-95444650D02*
X146003000Y-86503000D01*
X149512836Y-98100000D02*
X148658350Y-98100000D01*
X148658350Y-98100000D02*
X146003000Y-95444650D01*
X149514723Y-98101887D02*
X149512836Y-98100000D01*
%TO.N,GPIO15*%
X143976000Y-112524000D02*
X143000000Y-113500000D01*
X143976000Y-108786950D02*
X143976000Y-112524000D01*
X146543950Y-106219000D02*
X143976000Y-108786950D01*
X148953500Y-106219000D02*
X146543950Y-106219000D01*
X149200000Y-106465500D02*
X148953500Y-106219000D01*
%TO.N,GPIO1*%
X145602000Y-96867800D02*
X145602000Y-88102000D01*
X146432200Y-97698000D02*
X145602000Y-96867800D01*
X145602000Y-88102000D02*
X143000000Y-85500000D01*
X147689250Y-97698000D02*
X146432200Y-97698000D01*
X148791250Y-98800000D02*
X147689250Y-97698000D01*
X149100000Y-98785996D02*
X149085996Y-98800000D01*
X149085996Y-98800000D02*
X148791250Y-98800000D01*
%TO.N,GPIO2*%
X145201000Y-89701000D02*
X143000000Y-87500000D01*
X146266100Y-98099000D02*
X145201000Y-97033900D01*
X147523150Y-98099000D02*
X146266100Y-98099000D01*
X145201000Y-97033900D02*
X145201000Y-89701000D01*
X148754604Y-99330454D02*
X147523150Y-98099000D01*
X148754604Y-100103133D02*
X148754604Y-99330454D01*
%TO.N,GPIO3*%
X144800000Y-91300000D02*
X143000000Y-89500000D01*
X144800000Y-97200000D02*
X144800000Y-91300000D01*
X147357050Y-98500000D02*
X146100000Y-98500000D01*
X148153604Y-99296554D02*
X147357050Y-98500000D01*
X148153604Y-100516104D02*
X148153604Y-99296554D01*
X146100000Y-98500000D02*
X144800000Y-97200000D01*
X148500000Y-100862500D02*
X148153604Y-100516104D01*
%TO.N,GPIO4*%
X144377000Y-98741071D02*
X144377000Y-92877000D01*
X146884735Y-101248806D02*
X144377000Y-98741071D01*
X144377000Y-92877000D02*
X143000000Y-91500000D01*
%TO.N,GPIO5*%
X143976000Y-94476000D02*
X143000000Y-93500000D01*
X146200000Y-101662500D02*
X143976000Y-99438500D01*
X143976000Y-99438500D02*
X143976000Y-94476000D01*
%TO.N,Net-(U1-USB_DP)*%
X154948071Y-97810758D02*
X155439242Y-97810758D01*
X155439242Y-97810758D02*
X157250000Y-96000000D01*
%TO.N,Net-(U1-USB_DM)*%
X158806156Y-96000000D02*
X160500000Y-96000000D01*
X155360341Y-99445815D02*
X158806156Y-96000000D01*
%TD*%
M02*
